<svg width="117" height="36" viewBox="0 0 117 36" fill="none" xmlns="http://www.w3.org/2000/svg">
<path d="M37.5125 31.2495H35.2802V20.145C36.7029 20.0945 37.6135 20.0692 38.012 20.0692C39.561 20.0692 40.7872 20.5405 41.6906 21.483C42.594 22.4255 43.0448 23.6804 43.0448 25.2459C43.0448 29.2471 41.2001 31.2495 37.5125 31.2495ZM36.7931 21.5101V29.8086C37.1303 29.8591 37.5504 29.8844 38.0499 29.8844C39.1102 29.8844 39.9415 29.4872 40.5474 28.6909C41.1532 27.8947 41.4562 26.7896 41.4562 25.3759C41.4562 22.7487 40.2787 21.4342 37.9219 21.4342C37.7812 21.4342 37.4043 21.4595 36.7949 21.5101H36.7931Z" fill="white"/>
<path d="M47.0102 23.1316V28.3082C47.0102 29.5613 47.5529 30.1878 48.6367 30.1878C49.1109 30.1878 49.5455 30.0506 49.9386 29.778C50.3317 29.5053 50.5914 29.1893 50.7176 28.83V23.1298H52.1548V31.2477H50.7176V30.1264C50.5553 30.4442 50.2325 30.7367 49.7456 31.0022C49.2588 31.2676 48.7827 31.3994 48.3193 31.3994C47.4303 31.3994 46.7505 31.1448 46.2799 30.6338C45.8074 30.1228 45.573 29.3988 45.573 28.4581V23.1298H47.0102V23.1316Z" fill="white"/>
<path d="M55.6348 30.6643L55.1281 31.3992H54.4086V19.2981L55.8476 18.2761V23.7272C55.9828 23.5394 56.2389 23.3679 56.6158 23.2126C56.9908 23.0555 57.3623 22.9779 57.7247 22.9779C58.8355 22.9779 59.7335 23.3625 60.4224 24.1299C61.1112 24.8972 61.4556 25.8686 61.4556 27.0405C61.4556 28.3947 61.1094 29.46 60.4188 30.2346C59.7263 31.011 58.7905 31.3974 57.6111 31.3974C57.2271 31.3974 56.8502 31.3252 56.4805 31.1807C56.1091 31.0363 55.8278 30.8629 55.6366 30.6607L55.6348 30.6643ZM55.8458 24.8286V29.5123C55.8458 29.5936 56.0243 29.7254 56.3832 29.9096C56.742 30.0937 57.0143 30.1858 57.2 30.1858C58.1792 30.1858 58.8806 29.9511 59.3044 29.4816C59.7281 29.0122 59.9409 28.2231 59.9409 27.1163C59.9409 26.1973 59.6939 25.4786 59.1998 24.964C58.7057 24.4495 58.0385 24.1913 57.2018 24.1913C57.0251 24.1913 56.7799 24.2671 56.4643 24.4188C56.1487 24.5704 55.9432 24.7077 55.8476 24.8286H55.8458Z" fill="white"/>
<path d="M67.1881 30.316C66.6128 31.0382 65.7329 31.3993 64.5464 31.3993C63.9098 31.3993 63.3598 31.1682 62.8928 30.706C62.4258 30.2438 62.1931 29.6696 62.1931 28.9817C62.1931 28.1583 62.552 27.4613 63.2715 26.8926C63.991 26.3238 64.907 26.0403 66.0232 26.0403C66.3261 26.0403 66.6687 26.1053 67.0528 26.2372C67.0528 24.9227 66.4668 24.2672 65.2965 24.2672C64.3985 24.2672 63.7078 24.5092 63.2228 24.9949L62.6169 23.7906C62.8892 23.5685 63.2661 23.3771 63.7475 23.2182C64.229 23.0593 64.6906 22.9799 65.1288 22.9799C66.3045 22.9799 67.1592 23.2471 67.6912 23.7833C68.2231 24.3196 68.49 25.17 68.49 26.3383V29.2489C68.49 29.9621 68.7028 30.437 69.1265 30.6735V31.3939C68.5405 31.3939 68.1041 31.3109 67.8138 31.1448C67.5235 30.9786 67.3161 30.7024 67.1899 30.3196L67.1881 30.316ZM67.051 27.2627C66.5966 27.1616 66.2792 27.1111 66.0971 27.1111C65.3704 27.1111 64.7772 27.2988 64.3191 27.6726C63.8593 28.0464 63.6303 28.4887 63.6303 28.9997C63.6303 29.8429 64.128 30.2654 65.1216 30.2654C65.8483 30.2654 66.492 29.9188 67.051 29.2272V27.2645V27.2627Z" fill="white"/>
<path d="M71.0723 31.2494V24.3448V23.1314H72.5112V31.2494H71.0723ZM71.8585 20.0619C72.1055 20.0619 72.3165 20.1486 72.4896 20.3237C72.6645 20.4988 72.7511 20.7065 72.7511 20.9484C72.7511 21.1904 72.6645 21.4071 72.4896 21.5804C72.3147 21.7555 72.1055 21.8422 71.8585 21.8422C71.6114 21.8422 71.4077 21.7555 71.2346 21.5804C71.0596 21.4053 70.9731 21.1958 70.9731 20.9484C70.9731 20.7011 71.0596 20.4916 71.2309 20.3201C71.4022 20.1486 71.6114 20.0619 71.8585 20.0619Z" fill="white"/>
<path d="M91.2755 31.1357V25.7695H86.4321V31.1357H84.9174V20.5206L86.4321 20.0331V24.4821H91.2755V20.5206L92.7902 20.0331V31.1375H91.2755V31.1357Z" fill="white"/>
<path d="M101.929 27.2157H96.0848C96.0848 28.1655 96.3444 28.8968 96.8638 29.4059C97.3236 29.8501 97.9132 30.0722 98.6345 30.0722C99.4568 30.0722 100.144 29.832 100.694 29.3518L101.3 30.39C101.078 30.6121 100.737 30.8053 100.277 30.966C99.702 31.179 99.0619 31.2837 98.355 31.2837C97.3362 31.2837 96.4707 30.9371 95.7584 30.2455C94.9668 29.4836 94.5701 28.4562 94.5701 27.1688C94.5701 25.8814 94.9758 24.7565 95.789 23.9476C96.5157 23.2254 97.3759 22.8643 98.3695 22.8643C99.5253 22.8643 100.431 23.1893 101.087 23.8411C101.723 24.4676 102.041 25.2982 102.041 26.3346C102.041 26.6524 102.003 26.9467 101.927 27.2139L101.929 27.2157ZM98.4398 24.0794C97.7978 24.0794 97.2605 24.2871 96.8277 24.7005C96.413 25.0942 96.1785 25.5853 96.1244 26.1703H100.613C100.613 25.5889 100.431 25.105 100.068 24.715C99.6696 24.2907 99.1268 24.0776 98.4416 24.0776L98.4398 24.0794Z" fill="white"/>
<path d="M107.575 24.4044C107.261 24.1878 106.947 24.0794 106.628 24.0794C106.118 24.0794 105.672 24.3142 105.292 24.7836C104.911 25.2531 104.72 25.82 104.72 26.4809V31.1339H103.283V23.0159H104.72V24.3123C105.245 23.3482 106.024 22.8643 107.059 22.8643C107.317 22.8643 107.687 22.9094 108.172 22.9997L107.573 24.4026L107.575 24.4044Z" fill="white"/>
<path d="M115.633 27.2157H109.789C109.789 28.1655 110.049 28.8968 110.568 29.4059C111.028 29.8501 111.618 30.0722 112.339 30.0722C113.161 30.0722 113.848 29.832 114.398 29.3518L115.004 30.39C114.782 30.6121 114.441 30.8053 113.982 30.966C113.406 31.179 112.766 31.2837 112.059 31.2837C111.041 31.2837 110.175 30.9371 109.463 30.2455C108.671 29.4836 108.274 28.4562 108.274 27.1688C108.274 25.8814 108.68 24.7565 109.493 23.9476C110.22 23.2254 111.08 22.8643 112.074 22.8643C113.23 22.8643 114.135 23.1893 114.791 23.8411C115.428 24.4676 115.745 25.2982 115.745 26.3346C115.745 26.6524 115.707 26.9467 115.632 27.2139L115.633 27.2157ZM112.532 24.0794C111.892 24.0794 111.354 24.2871 110.92 24.7005C110.507 25.0942 110.271 25.5853 110.217 26.1703H114.705C114.705 25.5889 114.523 25.105 114.16 24.715C113.762 24.2907 113.219 24.0776 112.534 24.0776L112.532 24.0794Z" fill="white"/>
<path d="M56.5546 7.06716L54.8217 5.87366L53.7416 7.47883L55.4745 8.69039L56.5546 7.06716Z" fill="white"/>
<path d="M63.8954 9.53537C62.9397 8.89439 61.8398 8.2209 60.5974 7.5113L60.4477 7.54922L59.8887 9.20856C59.9266 9.2212 60.2169 9.35843 60.7651 9.61843C60.3792 9.88024 60.0762 10.2432 59.8526 10.709C59.629 11.1749 59.5172 11.6515 59.5172 12.1354C59.5172 12.8071 59.7156 13.4156 60.1141 13.9627H58.6048C57.7465 13.9627 56.6447 13.7352 56.0424 13.43V10.3009L54.6035 11.0774V13.6413L54.4682 13.663C54.1941 13.8616 53.6856 13.9609 52.9409 13.9609H52.5676L52.564 13.9808C52.564 13.9808 52.555 13.9808 52.5496 13.9808H39.3771C39.3031 13.9699 39.2256 13.9627 39.1336 13.9627C38.6107 13.9627 38.1996 13.9121 37.9002 13.8128C37.6009 13.7135 37.3845 13.542 37.2493 13.3C37.1158 13.0581 37.0491 12.706 37.0491 12.2456V3.09121L36.9067 2.99731L35.2802 3.4451V12.4189C35.2802 13.6377 35.5759 14.508 36.1655 15.0298C36.7552 15.5516 37.6099 15.8134 38.7279 15.8134H52.5135C53.1591 15.8134 53.7181 15.7394 54.1905 15.5895C54.663 15.4397 55.0669 15.2158 55.4023 14.9179C55.7629 15.2158 56.1975 15.4397 56.706 15.5895C57.2145 15.7394 57.705 15.8134 58.1774 15.8134H59.1458C60.1646 15.8134 61.0644 15.6527 61.847 15.3277C62.6909 15.7015 63.6484 15.8875 64.7159 15.8875C65.6229 15.8875 66.3082 15.7195 66.7752 15.3837C67.2404 15.0479 67.473 14.5441 67.473 13.8724C67.473 13.152 67.116 12.4081 66.4019 11.6425C65.6878 10.8769 64.853 10.1746 63.8954 9.53537ZM62.5575 13.0148C62.424 13.3 62.2293 13.5366 61.9732 13.7244C61.6072 13.5257 61.3421 13.273 61.1798 12.9696C61.0157 12.6645 60.9328 12.3377 60.9328 11.991C60.9328 11.7292 60.976 11.4872 61.0608 11.2633C61.1455 11.0394 61.2609 10.8625 61.407 10.7325C61.5531 10.6025 61.7045 10.5375 61.8632 10.5375C62.0219 10.5375 62.168 10.6061 62.3014 10.7433C62.4348 10.8805 62.5448 11.0665 62.6296 11.3031C62.7143 11.5396 62.7576 11.7942 62.7576 12.0686C62.7576 12.4171 62.6909 12.7349 62.5575 13.0202V13.0148ZM65.5797 14.1812C65.338 14.2245 65.0603 14.2462 64.743 14.2462C64.2867 14.2462 63.8486 14.2155 63.4302 14.1523C63.6917 13.8544 63.8828 13.5239 64.0072 13.1628C64.1317 12.8017 64.193 12.4297 64.193 12.0433C64.193 11.9314 64.1858 11.8447 64.1749 11.7815C64.7123 12.1914 65.1469 12.5868 65.4805 12.966C65.8123 13.3452 66.0052 13.69 66.0557 14.0006C65.98 14.0746 65.8213 14.1342 65.5797 14.1776V14.1812Z" fill="white"/>
<path d="M76.5216 20.6832L75.4775 22.2505L77.1726 23.4241L78.1986 21.8388L76.5216 20.6832Z" fill="white"/>
<path d="M78.1606 22.2505L79.8376 23.4241L80.8817 21.8388L79.2047 20.6832L78.1606 22.2505Z" fill="white"/>
<path d="M104.553 18.7981L106.284 20.0114L107.366 18.3882L105.633 17.2128L104.553 18.7981Z" fill="white"/>
<path d="M106.652 9.1543H106.471L104.96 10.3478C105.283 11.0195 105.532 11.5919 105.705 12.0649C105.878 12.538 105.966 12.9605 105.966 13.3342C105.966 13.4968 105.946 13.6448 105.909 13.782C105.629 13.9066 104.982 13.968 103.967 13.968H103.795L103.79 13.9879C103.79 13.9879 103.775 13.9879 103.766 13.9879H90.3757L90.3649 14.0077C90.2873 13.9951 90.2026 13.9879 90.1052 13.9879H86.9117C86.8396 13.977 86.762 13.9698 86.6719 13.9698C86.0876 13.9698 85.5142 13.9084 84.948 13.7838C84.3818 13.6593 83.6461 13.4606 82.7409 13.1862C82.5912 13.1483 82.4181 13.0995 82.2197 13.0363C82.0214 12.9749 81.7906 12.9063 81.5309 12.8305L80.9899 14.5657C81.7058 14.7516 82.2666 14.9196 82.6741 15.0694C83.0817 15.2193 83.3738 15.3674 83.5523 15.5172C83.7308 15.6671 83.821 15.8278 83.821 16.0029C83.6731 16.2756 83.3431 16.5211 82.8346 16.7396C82.3261 16.9563 81.6968 17.1278 80.9467 17.2524C80.1965 17.377 79.3995 17.4384 78.5574 17.4384C77.5909 17.4384 76.8191 17.3264 76.2421 17.1025C75.665 16.8786 75.2593 16.5608 75.0249 16.151C74.7887 15.7411 74.6715 15.2373 74.6715 14.6397C74.6715 14.1793 74.74 13.6268 74.877 12.9785L74.7093 12.8847L73.2 13.4065C73.1135 13.7044 73.0413 14.0384 72.9854 14.405C72.9295 14.7715 72.9025 15.1362 72.9025 15.4955C72.9025 16.2286 73.0972 16.8822 73.4885 17.4546C73.8798 18.027 74.4731 18.4748 75.2683 18.798C76.0635 19.1212 77.0445 19.2837 78.2112 19.2837C79.5654 19.2837 80.7735 19.1465 81.8338 18.8738C82.8959 18.5994 83.7435 18.2021 84.3764 17.6803C85.0093 17.1585 85.37 16.5356 85.4565 15.8151H103.557C104.452 15.8151 105.122 15.7628 105.57 15.6562C106.017 15.5497 106.383 15.3601 106.67 15.0875C106.967 14.7896 107.198 14.4321 107.358 14.015C107.519 13.5979 107.6 13.1663 107.6 12.7185C107.6 12.296 107.515 11.7544 107.348 11.0953C107.18 10.4363 106.945 9.78987 106.644 9.1561L106.652 9.1543Z" fill="white"/>
<path d="M115.217 10.4688C114.652 9.52989 113.879 8.54403 112.898 7.51123H112.748L111.686 9.20849C112.436 9.90545 113.085 10.6421 113.635 11.4185C114.185 12.1949 114.523 12.8901 114.647 13.4986C114.459 13.6737 114.077 13.8091 113.497 13.9085C112.918 14.0078 112.328 14.0583 111.729 14.0583C111.417 14.0583 111.048 14.0439 110.617 14.0114C110.186 13.9807 109.854 13.9391 109.616 13.8904L109.522 13.9644L109.261 15.7177C109.546 15.7917 109.919 15.8477 110.379 15.8856C110.839 15.9235 111.235 15.9416 111.571 15.9416C112.999 15.9416 114.104 15.696 114.887 15.2049C115.669 14.7137 116.061 13.9825 116.061 13.0129C116.061 12.2545 115.778 11.4059 115.213 10.467L115.217 10.4688Z" fill="white"/>
<path d="M14.62 11.7867L11.811 14.5994L14.6314 17.4235L17.4404 14.6109L14.62 11.7867Z" fill="white"/>
<path d="M2.09545 7.07078C0.64025 9.48486 -0.0575958 12.2276 0.00371364 14.9558L4.98781 9.96514L2.09545 7.06897V7.07078Z" fill="white"/>
<path d="M0.232666 16.895C0.64921 19.9519 1.9295 22.6115 4.27729 24.9606L5.69101 26.3762L13.5332 18.5236L6.08592 11.0665L0.232666 16.895Z" fill="white"/>
<path d="M10.607 23.6478L6.78693 27.4729L14.6031 35.2994L18.4232 31.4742L10.607 23.6478Z" fill="white"/>
<path d="M11.7049 22.55L19.52 30.3773L24.9297 24.9605C25.4111 24.4766 25.8511 23.9674 26.2514 23.4366L18.5355 15.7104L11.7031 22.5518L11.7049 22.55Z" fill="white"/>
<path d="M29.1889 13.932L24.0714 19.0563L27.1368 22.1258C28.6353 19.6196 29.3205 16.7614 29.1871 13.932H29.1889Z" fill="white"/>
<path d="M22.9751 17.9566L28.9636 11.9602C28.446 9.14713 27.1044 6.45499 24.9316 4.27925C24.4537 3.80076 23.9506 3.36561 23.4277 2.96838L15.7171 10.6891L22.9751 17.9566Z" fill="white"/>
<path d="M22.1167 2.08177C18.9141 0.1552 15.1364 -0.435229 11.5804 0.315898L17.7312 6.47478L22.1167 2.08358V2.08177Z" fill="white"/>
<path d="M16.6331 7.57266L9.85657 0.787231C7.81893 1.486 5.90391 2.65061 4.27741 4.27925C3.80677 4.75051 3.3776 5.24705 2.9845 5.76165L10.7131 13.5004L16.6331 7.57266Z" fill="white"/>
</svg>
