<svg width="150" height="26" viewBox="0 0 150 26" fill="none" xmlns="http://www.w3.org/2000/svg">
<g clip-path="url(#clip0_138_1529)">
<mask id="mask0_138_1529" style="mask-type:luminance" maskUnits="userSpaceOnUse" x="0" y="0" width="150" height="26">
<path d="M150 0H0V26H150V0Z" fill="white"/>
</mask>
<g mask="url(#mask0_138_1529)">
<path d="M127.574 25.9953H118.582C118.465 26.0049 118.348 25.9967 118.233 25.9711C117.946 25.8769 117.911 25.5816 118.151 25.291C118.732 24.5944 119.32 23.9017 119.903 23.206L132.59 8.04384C134.358 5.93081 136.128 3.81881 137.9 1.70785C138.284 1.25049 138.427 1.24816 138.849 1.66967C141.831 4.62418 144.812 7.57947 147.792 10.5355C148.46 11.1937 149.127 11.8559 149.792 12.5224C150.066 12.7966 150.063 12.9556 149.792 13.2236L143.047 19.9725C141.154 21.8684 139.264 23.7662 137.375 25.6657C137.274 25.7754 137.151 25.8617 137.015 25.919C136.879 25.9763 136.732 26.0034 136.586 25.9984C133.579 25.9911 130.572 25.9911 127.565 25.9984" fill="white"/>
<path d="M137.867 0.952832L133.638 6.01726C133.45 5.81624 133.287 5.62769 133.11 5.44849C131.512 3.84189 129.915 2.23504 128.319 0.62793C128.261 0.574582 128.216 0.508639 128.186 0.434909C128.156 0.361178 128.143 0.281519 128.147 0.201738C128.182 0.10045 128.411 0.013965 128.555 0.013965C131.274 0.00201817 133.993 0.00201817 136.711 0.013965C136.875 0.0240541 137.032 0.0900936 137.155 0.201738C137.405 0.430027 137.623 0.695715 137.864 0.960624" fill="white"/>
<path d="M68.7039 2.67474C71.1838 3.13677 72.6456 4.64441 72.9568 6.74965C73.0503 7.40335 73.0548 7.40335 73.7059 7.40335H76.0756V0.0131836H78.0514V7.36751H109.876V2.99574H111.843V8.94606H67.5457C67.5457 8.47857 67.5367 8.00563 67.5585 7.53503C67.5585 7.48439 67.7461 7.40413 67.8524 7.40258C68.8116 7.39245 69.7717 7.39634 70.7317 7.39634H71.1016C71.0965 6.61185 70.794 5.86072 70.2591 5.30434C69.6982 4.77257 69.0044 4.4141 68.2563 4.26964L68.7039 2.67084" fill="white"/>
<path d="M27.6832 2.96772V8.63832C27.6832 8.87829 27.6365 8.97257 27.3682 8.97101C21.5017 8.96374 15.6352 8.96192 9.76874 8.96556C9.7062 8.96556 9.6429 8.9601 9.54269 8.95465C9.53741 8.83622 9.52611 8.7209 9.52611 8.60949V5.7212C9.50953 4.64131 9.2149 4.20421 7.83142 4.39666C7.61666 4.42705 7.65358 4.57197 7.65358 4.70443V8.9118C7.61214 8.93283 7.58501 8.9601 7.56015 8.95855C6.12015 8.91491 4.68091 8.93439 3.24619 8.82141C2.76117 8.80355 2.2853 8.67976 1.84984 8.45819C1.41438 8.23662 1.0292 7.92228 0.719599 7.53583C0.128597 6.71497 -0.123176 5.68513 0.0195695 4.67248C0.0603561 4.26769 0.133702 3.86712 0.238847 3.47494C0.262945 3.41068 0.30115 3.3531 0.350449 3.30672C0.399748 3.26034 0.458793 3.22644 0.522928 3.20769C1.12575 3.08926 1.74063 3.002 2.36757 2.89993C2.23892 3.32922 2.14119 3.76778 2.0752 4.212C2.02518 4.74299 2.03783 5.2783 2.11288 5.80613C2.16341 6.10854 2.29277 6.39097 2.48703 6.62299C2.68128 6.85502 2.93308 7.02785 3.21529 7.12288C4.03249 7.38585 4.89224 7.4775 5.74414 7.39247V3.02537C7.0961 2.74914 8.48604 2.73619 9.84259 2.98719C10.2535 3.07777 10.6245 3.3048 10.8991 3.63368C11.1736 3.96257 11.3366 4.37525 11.3632 4.80883C11.4386 5.51863 11.4175 6.24011 11.4318 6.95693C11.4401 7.39792 11.4318 7.3987 11.8568 7.40026H25.2998C25.7089 7.40026 25.7097 7.40026 25.7097 6.97173C25.7097 5.74926 25.7165 4.52678 25.7044 3.30976C25.7044 3.04719 25.77 2.95213 26.0427 2.96304C26.5702 2.98408 27.1052 2.96849 27.6869 2.96849" fill="white"/>
<path d="M64.1375 7.36756C64.145 7.23433 64.1593 7.09875 64.1593 6.96318C64.1593 5.75395 64.1669 4.54316 64.1548 3.33393C64.1548 3.06201 64.2158 2.94904 64.5097 2.96462C64.9671 2.988 65.4268 2.97475 65.8849 2.96462C66.0469 2.96462 66.1464 2.99111 66.1464 3.18901C66.1413 5.07298 66.1391 6.95695 66.1396 8.84092C66.1315 8.88287 66.1186 8.92368 66.1012 8.96246H42.2896C41.8099 8.96524 41.3308 8.92457 40.8579 8.84092C40.5071 8.80215 40.1678 8.6896 39.8607 8.51018C39.5535 8.33077 39.2852 8.08828 39.072 7.79764C38.8633 7.51189 38.7158 7.18342 38.6394 6.83412C38.563 6.48483 38.5595 6.12271 38.629 5.77187C38.6379 5.36499 38.7273 4.9643 38.8916 4.59448C39.0559 4.22465 39.2917 3.89351 39.5844 3.62144C40.1866 3.06123 40.9788 2.77045 41.7878 2.81269C42.7043 2.78119 43.6201 2.89309 44.5043 3.1446C44.5498 3.15083 44.5937 3.16636 44.6335 3.19031C44.6732 3.21425 44.7079 3.24612 44.7356 3.28407C44.7628 3.32134 44.7824 3.36406 44.7929 3.40952C44.8034 3.45498 44.8047 3.5022 44.7966 3.5482C44.7846 4.69354 44.7913 5.83888 44.7921 6.985V7.36834L64.1375 7.36756ZM42.8781 5.9503C42.8781 5.55449 42.8834 5.15713 42.8781 4.7621C42.8785 4.71706 42.8698 4.67242 42.8527 4.63099C42.8356 4.58957 42.8104 4.55224 42.7787 4.52135C42.5897 4.40807 42.3788 4.33972 42.1611 4.32126C41.9435 4.3028 41.7245 4.33468 41.5203 4.41461C41.3077 4.50788 41.1178 4.6488 40.9643 4.82717C40.8108 5.00555 40.6976 5.21695 40.6327 5.44609C40.5678 5.67524 40.5529 5.91643 40.5891 6.15224C40.6253 6.38805 40.7117 6.6126 40.8421 6.80969C40.999 7.01808 41.2045 7.18181 41.4394 7.28553C41.6743 7.38924 41.9308 7.42953 42.1849 7.40262C42.2913 7.39693 42.3979 7.39693 42.5044 7.40262C42.7854 7.43846 42.9105 7.35275 42.8857 7.03954C42.8563 6.67724 42.8789 6.31182 42.8789 5.94874" fill="white"/>
<path d="M46.7942 17.688C46.5569 18.2334 46.3165 18.7788 46.0821 19.3242C45.52 20.6306 44.9642 21.9383 44.4146 23.2472C44.3937 23.3306 44.3436 23.403 44.2739 23.4502C44.2043 23.4974 44.1201 23.5162 44.0378 23.5028C43.6987 23.481 43.2881 23.5971 43.0394 23.442C42.8058 23.2955 42.738 22.8779 42.6114 22.5702C41.9483 21.0165 41.2867 19.4627 40.6266 17.9085C40.5928 17.8213 40.5296 17.7496 40.4488 17.7067V23.4786H38.6953V14.2419C39.3041 14.2419 39.8889 14.2318 40.4751 14.252C40.5686 14.252 40.6861 14.3853 40.729 14.4858C41.3379 15.8758 41.9347 17.2712 42.5375 18.6643C42.8766 19.4492 43.217 20.233 43.5586 21.0158C43.5957 21.0856 43.6368 21.1533 43.6814 21.2183C44.0205 20.4337 44.343 19.6912 44.661 18.9471C45.302 17.4657 45.9407 15.9835 46.5772 14.5006C46.6018 14.4129 46.6562 14.3373 46.7305 14.2879C46.8047 14.2385 46.8937 14.2186 46.9811 14.2318C47.4498 14.2512 47.9178 14.2419 48.3865 14.2364C48.5568 14.2364 48.6359 14.2855 48.6359 14.4702C48.6313 17.4356 48.6296 20.4015 48.6306 23.368C48.6235 23.4129 48.6122 23.457 48.5967 23.4997C48.0865 23.4997 47.5666 23.5098 47.0489 23.4856C46.9909 23.4856 46.8982 23.2885 46.8982 23.1818C46.8892 21.5222 46.8914 19.8626 46.8914 18.203V17.7036L46.792 17.6857" fill="white"/>
<path d="M0.0768427 23.4771C0.071568 23.3563 0.0640328 23.2628 0.0640328 23.1655C0.0640328 20.3185 0.0617722 17.472 0.057251 14.626C0.057251 14.3222 0.132604 14.2225 0.445319 14.2295C1.45806 14.2505 2.47081 14.2295 3.4828 14.2419C4.47753 14.2079 5.45167 14.5399 6.23194 15.1788C7.0122 15.8176 7.548 16.722 7.74401 17.7309C7.96317 18.5624 7.95223 19.4407 7.71245 20.2661C7.47266 21.0914 7.01366 21.8306 6.38766 22.3996C5.63709 23.0973 4.66468 23.4855 3.65536 23.4904C2.52506 23.5184 1.39477 23.4997 0.264472 23.5005C0.201558 23.4959 0.138926 23.4886 0.0768427 23.4771ZM1.8921 15.8407C1.8688 15.8981 1.85064 15.9576 1.83784 16.0184C1.83483 17.8883 1.83181 19.7583 1.8288 21.6282C1.8288 21.8035 1.90415 21.8448 2.0624 21.8425C2.57404 21.8362 3.08569 21.8573 3.59583 21.8323C4.12076 21.8288 4.62981 21.6458 5.04372 21.312C5.45763 20.9781 5.75316 20.5121 5.8843 19.9865C6.10008 19.2202 6.08958 18.4046 5.85416 17.6444C5.76017 17.2442 5.55777 16.88 5.27069 16.5945C4.98361 16.3089 4.62376 16.114 4.23332 16.0324C3.45505 15.9256 2.67172 15.8629 1.88682 15.8446" fill="white"/>
<path d="M80.1251 22.6068V25.9572H78.4267V16.7376C78.4817 16.7261 78.5373 16.7183 78.5932 16.7142H80.1002C80.1161 17.0064 80.1304 17.2837 80.1432 17.5284C80.466 17.2682 80.8111 17.0389 81.1741 16.8435C81.6041 16.6628 82.0665 16.5794 82.5303 16.599C82.9941 16.6186 83.4484 16.7408 83.8627 16.9573C84.2711 17.1688 84.629 17.4715 84.9105 17.8435C85.192 18.2156 85.39 18.6476 85.4902 19.1085C85.6457 19.6802 85.668 20.2819 85.5552 20.8643C85.4425 21.4466 85.1979 21.993 84.8415 22.4588C84.3323 23.0856 83.6153 23.4935 82.8307 23.6026C82.0461 23.7117 81.2503 23.5141 80.5991 23.0486C80.4484 22.931 80.3241 22.7899 80.1304 22.606M80.1025 20.1128C80.1017 20.5038 80.2131 20.8863 80.4228 21.2116C80.6326 21.537 80.9311 21.7905 81.2805 21.9401C81.6299 22.0897 82.0144 22.1286 82.3852 22.0518C82.756 21.975 83.0963 21.786 83.363 21.5088C83.6297 21.2316 83.8108 20.8787 83.8832 20.4949C83.9555 20.1111 83.9159 19.7138 83.7695 19.3533C83.623 18.9928 83.3762 18.6855 83.0605 18.4703C82.7447 18.2551 82.3743 18.1418 81.9961 18.1447C81.7405 18.1346 81.4857 18.1791 81.2475 18.2755C81.0093 18.3719 80.7929 18.5181 80.6119 18.7049C80.4343 18.8882 80.2969 19.1089 80.2092 19.3519C80.1214 19.595 80.0853 19.8548 80.1033 20.1136" fill="white"/>
<path d="M18.3394 17.5859C18.6197 17.2331 18.9806 16.9579 19.3894 16.7853C19.7983 16.6127 20.2423 16.548 20.6814 16.5972C21.4774 16.6351 22.2311 16.9795 22.7941 17.5626C23.3571 18.1458 23.6889 18.9256 23.7241 19.7488C23.7899 20.3057 23.7282 20.8708 23.5442 21.3986C23.3602 21.9263 23.0589 22.4021 22.6647 22.7875C22.1152 23.3045 21.4065 23.6038 20.6641 23.6323C19.9217 23.6608 19.1935 23.4167 18.6084 22.9433C18.5082 22.849 18.3989 22.7719 18.2806 22.6761V23.5059H16.91C16.806 23.5059 16.702 23.4957 16.5739 23.4887C16.5671 23.3539 16.5581 23.2402 16.5581 23.1256C16.5581 20.2787 16.5558 17.4322 16.5513 14.5862C16.5513 14.326 16.6153 14.2247 16.8873 14.238C17.3334 14.259 17.7803 14.2434 18.2625 14.2434V17.5563L18.3379 17.5883M20.1667 18.1524C19.9085 18.1397 19.6506 18.182 19.4088 18.2766C19.1671 18.3712 18.9467 18.5161 18.7614 18.7024C18.5794 18.8851 18.4374 19.106 18.345 19.3502C18.2526 19.5944 18.2119 19.8563 18.2256 20.1181C18.2366 20.6331 18.4414 21.1232 18.7965 21.4844C19.1516 21.8456 19.629 22.0492 20.1271 22.0521C20.6252 22.0549 21.1047 21.8567 21.4636 21.4996C21.8225 21.1425 22.0326 20.6547 22.049 20.14C22.0672 19.8811 22.0317 19.6213 21.9449 19.3778C21.8581 19.1343 21.722 18.9128 21.5457 18.7281C21.366 18.5399 21.151 18.3917 20.9138 18.2927C20.6767 18.1937 20.4224 18.1459 20.1667 18.1524Z" fill="white"/>
<path d="M31.5043 23.4849H29.8179V22.6714L29.7426 22.6403C29.6386 22.7494 29.5414 22.8662 29.4299 22.9675C28.9482 23.352 28.368 23.5819 27.7612 23.6286C27.1544 23.6752 26.5477 23.5367 26.0164 23.2301C25.3689 22.8464 24.8607 22.254 24.5698 21.5434C24.2788 20.8328 24.2211 20.0432 24.4053 19.2954C24.5039 18.651 24.793 18.0539 25.233 17.5863C25.673 17.1186 26.2423 16.8033 26.8626 16.6837C27.3647 16.528 27.8999 16.5268 28.4026 16.6804C28.9054 16.834 29.354 17.1356 29.6936 17.5486C29.7042 17.561 29.7313 17.5595 29.7953 17.5766V16.7359H31.5028L31.5043 23.4849ZM29.8322 20.1283C29.853 19.87 29.8195 19.6101 29.7341 19.3664C29.6486 19.1228 29.5132 18.9011 29.3372 18.7165C29.1577 18.5284 28.9426 18.3808 28.7053 18.2829C28.468 18.185 28.2136 18.139 27.9582 18.1477C27.7025 18.1355 27.4471 18.1777 27.2077 18.2715C26.9684 18.3653 26.7501 18.5088 26.5665 18.6932C26.3855 18.8738 26.244 19.0925 26.1516 19.3344C26.0592 19.5763 26.018 19.8358 26.0307 20.0956C26.0138 20.3544 26.0497 20.614 26.1362 20.8575C26.2226 21.101 26.3577 21.323 26.5325 21.509C26.7108 21.6985 26.9242 21.849 27.1599 21.9512C27.3957 22.0535 27.649 22.1056 27.9047 22.1042C28.1628 22.1172 28.4206 22.0749 28.6622 21.9801C28.9037 21.8854 29.1238 21.7401 29.3085 21.5534C29.4897 21.3701 29.6305 21.1487 29.7216 20.9042C29.8126 20.6596 29.8516 20.3977 29.836 20.1361" fill="white"/>
<path d="M91.6542 17.6001V16.743H93.3526V23.4779H91.6542V22.5601C91.272 23.086 90.712 23.4434 90.0861 23.5613C89.2469 23.742 88.3726 23.5741 87.6522 23.0938C87.3008 22.8613 86.9985 22.5575 86.7637 22.2009C86.5289 21.8443 86.3665 21.4422 86.286 21.0189C86.164 20.5122 86.1434 19.985 86.2254 19.4698C86.3074 18.9545 86.4903 18.462 86.763 18.0224C87.0128 17.6254 87.3457 17.2914 87.7369 17.045C88.1281 16.7987 88.5678 16.6462 89.0236 16.5989C89.4804 16.5477 89.9425 16.602 90.3765 16.7579C90.8106 16.9138 91.2058 17.1674 91.5336 17.5003C91.572 17.5339 91.6133 17.5637 91.6571 17.5892M89.8223 22.0825C90.0806 22.0852 90.3366 22.0335 90.5749 21.9305C90.8131 21.8275 91.0286 21.6753 91.2081 21.4833C91.3842 21.2949 91.5196 21.07 91.6053 20.8233C91.6909 20.5767 91.7247 20.314 91.7046 20.0528C91.6822 19.5397 91.4676 19.0557 91.1062 18.7034C90.7447 18.351 90.2649 18.1579 89.7682 18.1648C89.2714 18.1718 88.7968 18.3784 88.4448 18.7408C88.0928 19.1032 87.8909 19.593 87.8819 20.1066C87.8701 20.3684 87.9121 20.6299 88.0051 20.8738C88.0981 21.1177 88.24 21.3384 88.4215 21.5215C88.6064 21.7081 88.826 21.854 89.0671 21.9503C89.3081 22.0466 89.5656 22.0913 89.8238 22.0817" fill="white"/>
<path d="M56.395 23.4833H54.7085V22.6489C54.6345 22.6981 54.564 22.7528 54.4976 22.8125C54.1619 23.1851 53.7295 23.4497 53.2522 23.5748C52.7748 23.6998 52.2727 23.68 51.8059 23.5176C51.3539 23.401 50.948 23.1421 50.6443 22.7767C50.3406 22.4113 50.1541 21.9575 50.1105 21.4778C50.0689 21.2246 50.0494 20.968 50.0525 20.7112C50.0472 19.4887 50.0525 18.2662 50.0525 17.0492V16.7375H51.763V17.0835C51.763 18.2117 51.7487 19.3321 51.7683 20.4571C51.7467 20.7216 51.7924 20.9872 51.9008 21.2278C52.0092 21.4683 52.1765 21.6754 52.3862 21.8285C52.5958 21.9816 52.8405 22.0753 53.096 22.1005C53.3515 22.1256 53.6089 22.0812 53.8427 21.9718C54.0246 21.8862 54.1862 21.7606 54.3163 21.6039C54.4464 21.4471 54.542 21.2629 54.5963 21.0641C54.6671 20.8071 54.7034 20.5413 54.704 20.2741C54.7153 19.2144 54.704 18.154 54.704 17.0936V16.7321H56.3904L56.395 23.4833Z" fill="white"/>
<path d="M59.3842 16.7164V17.6194C59.4987 17.4979 59.5545 17.4434 59.6065 17.3857C59.86 17.1257 60.1614 16.921 60.4929 16.7838C60.8243 16.6465 61.1791 16.5796 61.536 16.5868C61.893 16.5941 62.2449 16.6754 62.5709 16.8261C62.8969 16.9767 63.1903 17.1935 63.4337 17.4636C63.8248 17.9751 64.0333 18.6106 64.0237 19.2627C64.0478 20.6332 64.0327 22.0029 64.0327 23.3742C64.0276 23.4119 64.0188 23.449 64.0064 23.4848H62.3335C62.3267 23.3617 62.3154 23.2511 62.3154 23.1334V19.8572C62.341 19.5934 62.3043 19.3272 62.2083 19.0814C62.1124 18.8356 61.9601 18.6176 61.7646 18.4461C61.5435 18.2703 61.2791 18.1625 61.0015 18.1349C60.7239 18.1073 60.4444 18.1612 60.195 18.2903C59.9351 18.4125 59.7181 18.6148 59.5738 18.8695C59.4295 19.1242 59.3648 19.4188 59.3887 19.713C59.3691 20.8482 59.3819 21.9834 59.3812 23.1171V23.4848H57.6677V23.0906C57.6677 21.0882 57.6752 19.0858 57.6601 17.0842C57.6601 16.7725 57.7626 16.6993 58.0452 16.7125C58.4694 16.732 58.8959 16.718 59.385 16.718" fill="white"/>
<path d="M8.96626 16.7203H10.4575C10.7054 16.7203 10.6527 16.9011 10.6527 17.0382V20.2825C10.6489 20.4651 10.6607 20.6476 10.6881 20.828C10.7045 21.0172 10.7584 21.2008 10.8465 21.3676C10.9345 21.5343 11.0547 21.6805 11.1997 21.7972C11.3477 21.9167 11.5172 22.0046 11.6982 22.0559C11.8793 22.1073 12.0684 22.1211 12.2547 22.0964C12.6157 22.0722 12.9537 21.9046 13.198 21.6287C13.4424 21.3529 13.5742 20.99 13.5658 20.616C13.5884 19.5665 13.5748 18.517 13.5764 17.4675C13.5764 16.7148 13.5764 16.7148 14.3254 16.7148H15.259V23.4856H13.5726V22.6698C13.5171 22.695 13.4645 22.7266 13.4159 22.7641C13.068 23.172 12.6076 23.4598 12.0967 23.5888C11.5858 23.7178 11.049 23.6818 10.5585 23.4856C10.0966 23.3533 9.69 23.0667 9.40202 22.6706C9.11404 22.2745 8.96083 21.791 8.96626 21.2954C8.89769 19.7909 8.94817 18.2794 8.94817 16.7211" fill="white"/>
<path d="M104.804 16.7173C105.372 16.7173 105.894 16.7079 106.412 16.7274C106.487 16.7274 106.588 16.8598 106.627 16.9526C107.189 18.3293 107.735 19.71 108.285 21.0906C108.323 21.1849 108.366 21.2784 108.441 21.4537C108.667 20.8896 108.86 20.4096 109.051 19.9242C109.443 18.9292 109.828 17.932 110.229 16.9409C110.254 16.8869 110.29 16.8395 110.335 16.8022C110.38 16.7649 110.432 16.7388 110.489 16.7258C110.998 16.7048 111.51 16.7157 112.082 16.7157C111.907 17.1427 111.752 17.5338 111.589 17.921C110.497 20.512 109.407 23.1026 108.317 25.693C108.291 25.7857 108.235 25.866 108.157 25.9194C108.08 25.9728 107.986 25.9959 107.893 25.9844C107.459 25.9743 107.024 25.9844 106.527 25.9844C106.602 25.8021 106.647 25.6673 106.704 25.5364C106.968 24.9287 107.248 24.3272 107.49 23.7109C107.549 23.5372 107.545 23.3474 107.479 23.1764C106.622 21.0898 105.75 19.0103 104.882 16.9276C104.862 16.8793 104.846 16.8334 104.806 16.7188" fill="white"/>
<path d="M74.4797 18.2529L73.2402 19.0477C73.0368 18.7407 72.7569 18.4964 72.4302 18.3404C72.1035 18.1845 71.7421 18.1228 71.3842 18.1618C70.925 18.2 70.4975 18.4189 70.1898 18.7734C69.851 19.1817 69.6808 19.7113 69.7157 20.2481C69.7507 20.7849 69.988 21.2861 70.3767 21.6438C71.2199 22.3738 72.3487 22.2078 73.2469 21.1848L74.4593 21.964C74.092 22.6004 73.5371 23.0983 72.8759 23.3847C72.2148 23.671 71.4822 23.7307 70.7859 23.555C70.0348 23.4146 69.3519 23.0153 68.8485 22.4222C68.3451 21.8291 68.0509 21.0771 68.0138 20.2889C67.9768 19.5007 68.1991 18.7227 68.6445 18.0819C69.0899 17.441 69.7321 16.9751 70.4664 16.7601C71.2014 16.526 71.99 16.545 72.7137 16.814C73.4375 17.0831 74.0571 17.5878 74.4797 18.2522" fill="white"/>
<path d="M100.239 18.0948V16.7188H101.17V15H102.908V16.2887C102.908 16.7219 102.908 16.7188 103.347 16.7188H104.283V18.0987C103.917 18.0987 103.558 18.115 103.2 18.0932C102.95 18.0784 102.898 18.1766 102.898 18.4049C102.908 19.304 102.898 20.2031 102.898 21.1022C102.898 21.865 103.162 22.1066 103.917 22.0427C104.033 22.0325 104.148 22.0107 104.306 21.9881C104.306 22.4003 104.319 22.8039 104.295 23.2044C104.295 23.2823 104.16 23.3921 104.069 23.4272C103.739 23.5543 103.388 23.611 103.036 23.594C102.685 23.577 102.34 23.4866 102.023 23.3283C101.751 23.1812 101.527 22.9554 101.379 22.6785C101.23 22.4017 101.162 22.0859 101.185 21.77C101.17 20.6677 101.17 19.5655 101.185 18.4633C101.189 18.1602 101.097 18.0605 100.808 18.0924C100.616 18.1024 100.425 18.1024 100.233 18.0924" fill="white"/>
<path d="M34.5682 8.94913H29.1074V7.40877H32.6391C32.6329 6.62977 32.336 5.88336 31.8103 5.32534C31.2463 4.78884 30.5497 4.42424 29.7976 4.27193L30.2377 2.67859C33.0724 2.88584 34.9789 5.65336 34.5644 8.94835" fill="white"/>
<path d="M96.3539 23.4848H94.6675V14.2457C95.1784 14.2457 95.6976 14.2457 96.2123 14.252C96.259 14.252 96.3246 14.3346 96.3442 14.3922C96.3584 14.4656 96.3609 14.5408 96.3516 14.615V23.4848" fill="white"/>
<path d="M34.572 16.7445H32.8946V23.4716H34.572V16.7445Z" fill="white"/>
<path d="M67.0348 16.7461H65.3559V23.4865H67.0348V16.7461Z" fill="white"/>
<path d="M97.6937 16.7133C98.2113 16.7133 98.7004 16.7048 99.1924 16.7227C99.2391 16.7367 99.2815 16.7625 99.3159 16.7979C99.3503 16.8334 99.3754 16.8771 99.3891 16.9253C99.4059 17.1599 99.4095 17.3953 99.3997 17.6304C99.3997 19.4715 99.3929 21.3134 99.4065 23.1545C99.4065 23.4366 99.3266 23.5309 99.047 23.5122C98.6039 23.4896 98.1586 23.5067 97.6967 23.5067L97.6937 16.7133Z" fill="white"/>
<path d="M77.0288 23.5067H75.5595C75.3447 23.5067 75.3583 23.3657 75.3583 23.2247V21.2675C75.3583 19.8775 75.3651 18.4867 75.3538 17.0967C75.3538 16.8147 75.4149 16.6877 75.7306 16.7071C76.1074 16.7344 76.4803 16.7173 76.848 16.7118C76.9987 16.7118 77.0937 16.743 77.093 16.9206C77.0864 19.0804 77.0816 21.2405 77.0786 23.4008C77.0786 23.4195 77.0628 23.4389 77.0349 23.5021" fill="white"/>
<path d="M98.5587 15.677C98.3074 15.6791 98.0653 15.5792 97.8844 15.3989C97.7963 15.3112 97.7263 15.2061 97.6786 15.0897C97.6309 14.9733 97.6066 14.8482 97.607 14.7218C97.6033 14.5282 97.6553 14.3378 97.7565 14.1749C97.8577 14.0119 98.0035 13.8838 98.1753 13.8067C98.3471 13.7297 98.5372 13.7072 98.7214 13.7421C98.9056 13.777 99.0756 13.8678 99.2098 14.0029C99.3439 14.138 99.4362 14.3113 99.4749 14.5008C99.5135 14.6903 99.4968 14.8873 99.4268 15.067C99.3569 15.2466 99.2368 15.4007 99.082 15.5096C98.9271 15.6185 98.7445 15.6773 98.5572 15.6786" fill="white"/>
<path d="M77.148 14.714C77.1494 14.8402 77.1261 14.9654 77.0794 15.082C77.0328 15.1987 76.9638 15.3043 76.8766 15.3927C76.7459 15.5265 76.5803 15.6179 76.4 15.6557C76.2198 15.6935 76.0327 15.676 75.8619 15.6054C75.6911 15.5348 75.544 15.4142 75.4386 15.2583C75.3332 15.1025 75.2741 14.9182 75.2686 14.7281C75.2763 14.4777 75.3774 14.2402 75.5508 14.0652C75.7241 13.8903 75.9562 13.7915 76.1984 13.7896C76.4406 13.7877 76.6741 13.8828 76.85 14.055C77.0259 14.2272 77.1305 14.4631 77.1419 14.7133" fill="white"/>
<path d="M67.1222 14.7336C67.1205 14.8589 67.0948 14.9827 67.0468 15.0978C66.9988 15.2129 66.9293 15.3171 66.8423 15.4044C66.7553 15.4917 66.6526 15.5605 66.5399 15.6067C66.4272 15.653 66.3068 15.6759 66.1856 15.674C66.061 15.6729 65.938 15.6462 65.8235 15.5955C65.709 15.5448 65.6054 15.4711 65.5187 15.3787C65.4337 15.2879 65.3678 15.1799 65.3252 15.0615C65.2825 14.9431 65.264 14.8169 65.2708 14.6907C65.2781 14.4444 65.3766 14.2105 65.5461 14.0372C65.7155 13.8639 65.9428 13.7645 66.1811 13.7596C66.4298 13.7613 66.6678 13.8645 66.8432 14.0468C67.0186 14.2291 67.1173 14.4756 67.1177 14.7328" fill="white"/>
<path d="M32.8177 14.7188C32.8201 14.4625 32.9204 14.2176 33.0967 14.0375C33.273 13.8574 33.511 13.7567 33.7589 13.7573C34.0011 13.7698 34.2298 13.8765 34.3991 14.0559C34.5685 14.2354 34.666 14.4744 34.6722 14.725C34.6697 14.9145 34.6135 15.099 34.5104 15.2556C34.4074 15.4123 34.262 15.5341 34.0925 15.606C33.923 15.6779 33.7368 15.6967 33.557 15.66C33.3772 15.6234 33.2119 15.5329 33.0815 15.3998C32.9944 15.3112 32.9261 15.205 32.8807 15.0878C32.8353 14.9706 32.8139 14.845 32.8177 14.7188Z" fill="white"/>
<path d="M25.7278 10.6703C25.7492 10.4953 25.8177 10.33 25.9253 10.1931C26.033 10.0563 26.1756 9.95335 26.3369 9.896C26.4983 9.83866 26.672 9.8292 26.8382 9.86869C27.0045 9.90819 27.1568 9.99505 27.2778 10.1195C27.3571 10.2051 27.4182 10.3069 27.4572 10.4184C27.4961 10.5299 27.512 10.6487 27.5038 10.7669C27.4856 11.0062 27.3777 11.2287 27.2032 11.3871C27.0288 11.5454 26.8014 11.6272 26.5696 11.6149C26.3377 11.6026 26.1196 11.4973 25.9617 11.3213C25.8038 11.1453 25.7185 10.9126 25.724 10.6726" fill="white"/>
<path d="M110.801 9.85382C110.918 9.84986 111.035 9.86985 111.144 9.91264C111.254 9.95543 111.354 10.0202 111.439 10.1032C111.522 10.1845 111.589 10.2828 111.634 10.392C111.679 10.5011 111.702 10.6187 111.701 10.7374C111.676 10.9658 111.571 11.1768 111.405 11.33C111.239 11.4833 111.025 11.568 110.802 11.568C110.58 11.568 110.366 11.4833 110.2 11.33C110.034 11.1768 109.929 10.9658 109.904 10.7374C109.904 10.6188 109.927 10.5015 109.972 10.3925C110.017 10.2836 110.084 10.1854 110.167 10.1039C110.338 9.93616 110.566 9.84515 110.802 9.8507" fill="white"/>
<path d="M66.1818 11.6108C65.9611 11.6108 65.7494 11.5201 65.5933 11.3587C65.4372 11.1973 65.3495 10.9785 65.3495 10.7502C65.3495 10.522 65.4372 10.3031 65.5933 10.1417C65.7494 9.98033 65.9611 9.88966 66.1818 9.88966C66.3355 9.88173 66.4884 9.91633 66.6248 9.98987C66.7613 10.0634 66.8762 10.1733 66.9579 10.3081C67.0375 10.4409 67.0796 10.594 67.0796 10.7502C67.0796 10.9065 67.0375 11.0596 66.9579 11.1924C66.8762 11.3272 66.7613 11.437 66.6248 11.5106C66.4884 11.5841 66.3355 11.6187 66.1818 11.6108Z" fill="white"/>
<path d="M63.1624 10.7357C63.1635 10.6204 63.1876 10.5065 63.2331 10.4011C63.2786 10.2958 63.3446 10.2012 63.4269 10.1233C63.5467 10.0068 63.697 9.9294 63.8591 9.90083C64.0213 9.87226 64.1879 9.8938 64.3383 9.96273C64.4886 10.0317 64.616 10.1449 64.7043 10.2883C64.7927 10.4318 64.8382 10.5989 64.8351 10.769C64.832 10.939 64.7804 11.1043 64.6868 11.2441C64.5933 11.384 64.4619 11.4922 64.3092 11.5552C64.1564 11.6182 63.989 11.6332 63.8281 11.5983C63.6671 11.5634 63.5197 11.4802 63.4043 11.3591C63.3247 11.2779 63.2621 11.1807 63.2205 11.0735C63.1789 10.9662 63.1591 10.8513 63.1624 10.7357Z" fill="white"/>
<path d="M5.49473 9.88954C5.72502 9.88832 5.94668 9.98 6.11263 10.1451C6.19383 10.2257 6.2584 10.3225 6.30244 10.4296C6.34647 10.5368 6.36906 10.652 6.36883 10.7684C6.35502 11.0037 6.25263 11.224 6.08361 11.3822C5.91459 11.5403 5.69238 11.6238 5.4646 11.6146C5.35357 11.6152 5.24353 11.593 5.14096 11.549C5.03839 11.5051 4.94534 11.4404 4.86731 11.3587C4.78928 11.277 4.72784 11.18 4.6866 11.0735C4.64535 10.9669 4.62514 10.8528 4.62715 10.738C4.62916 10.6233 4.65335 10.51 4.6983 10.4051C4.74325 10.3001 4.80805 10.2055 4.88889 10.1268C4.96973 10.0481 5.06497 9.9869 5.16901 9.94683C5.27306 9.90676 5.3838 9.8886 5.49473 9.89344" fill="white"/>
<path d="M3.31629 9.89034C3.46845 9.88297 3.6198 9.91728 3.75502 9.98979C3.89025 10.0623 4.00456 10.1704 4.0864 10.3033C4.16616 10.4341 4.20942 10.5852 4.21141 10.7399C4.21341 10.8946 4.17406 11.0468 4.0977 11.1798C4.01921 11.3147 3.90761 11.4258 3.77421 11.5018C3.64082 11.5777 3.49038 11.6158 3.33814 11.6123C3.10801 11.6227 2.88322 11.5387 2.71271 11.3785C2.6298 11.3008 2.56311 11.2064 2.51672 11.1011C2.47034 10.9958 2.44523 10.8818 2.44295 10.7661C2.44227 10.6498 2.46449 10.5345 2.50828 10.4274C2.55207 10.3202 2.6165 10.2234 2.69764 10.1428C2.86341 9.97741 3.08519 9.88568 3.31553 9.88723" fill="white"/>
<path d="M40.7742 2.11613C40.6604 2.11788 40.5474 2.09588 40.442 2.05143C40.3366 2.00698 40.241 1.94101 40.1608 1.85745C40.0832 1.77557 40.0231 1.67783 39.9841 1.57049C39.9452 1.46315 39.9284 1.34859 39.9348 1.23414C39.9441 0.998162 40.0428 0.77542 40.2095 0.613968C40.3762 0.452516 40.5975 0.365296 40.8259 0.371124C41.0542 0.376952 41.2712 0.475362 41.43 0.645123C41.5888 0.814883 41.6767 1.04239 41.6747 1.27855C41.6739 1.39442 41.6497 1.50885 41.6038 1.61455C41.5579 1.72025 41.4912 1.81491 41.408 1.89252C41.3232 1.97158 41.224 2.03235 41.1162 2.07128C41.0084 2.11021 40.8942 2.12652 40.7803 2.11925" fill="white"/>
<path d="M42.9821 2.11848C42.8684 2.12462 42.7546 2.1071 42.6476 2.06695C42.5405 2.0268 42.4424 1.96484 42.3589 1.88474C42.277 1.80604 42.212 1.71047 42.168 1.60418C42.124 1.4979 42.102 1.38326 42.1035 1.26765C42.1033 1.15217 42.1257 1.03783 42.1694 0.931524C42.213 0.825215 42.277 0.729122 42.3574 0.649015C42.5229 0.484441 42.7442 0.393526 42.9738 0.395793C43.1957 0.394859 43.4096 0.482169 43.571 0.639663C43.7324 0.797157 43.8291 1.01278 43.8411 1.24194C43.8444 1.35752 43.8245 1.47254 43.7827 1.57981C43.741 1.68707 43.6783 1.78425 43.5985 1.86526C43.5171 1.94774 43.4208 2.01272 43.315 2.05645C43.2092 2.10019 43.096 2.1218 42.9821 2.12004" fill="white"/>
</g>
</g>
<defs>
<clipPath id="clip0_138_1529">
<rect width="150" height="26" fill="white"/>
</clipPath>
</defs>
</svg>
