<svg width="108" height="43" viewBox="0 0 108 43" fill="none" xmlns="http://www.w3.org/2000/svg">
<path d="M3.06286 23.2017L3.96337 23.8288L4.59393 22.9333L3.69276 22.3062L3.24218 22.9333L2.34233 22.3062L1.80176 23.2017L2.70227 23.8288L3.15285 23.2017H3.06286Z" fill="white"/>
<path d="M20.447 21.7685L21.4382 22.4851L22.0687 21.5895L21.0776 20.9624L20.447 21.858V21.7685Z" fill="white"/>
<path d="M19.9966 20.1563C20.3593 20.1711 20.7224 20.141 21.0777 20.0668C21.3215 20.0185 21.5428 19.8926 21.7083 19.7082C21.8589 19.5511 21.9809 19.3692 22.0689 19.1705C22.0689 18.9916 22.1588 18.7224 22.1588 18.5434C22.1786 18.2344 22.1165 17.9256 21.9789 17.6478C21.9551 17.2919 21.83 16.95 21.6183 16.6621H21.5283L20.6278 17.3787C20.7713 17.6674 20.8918 17.9669 20.9884 18.2743C21.0178 18.4908 21.0784 18.702 21.1683 18.9014V18.9909H7.38616C7.08309 19.0103 6.77888 18.98 6.48565 18.9014C6.2157 18.9014 5.8551 18.7224 5.31192 18.6329L4.86134 18.4539L4.50401 19.5292C4.7615 19.5634 5.00784 19.6552 5.22455 19.7976C5.29426 19.7989 5.36281 19.8156 5.4252 19.8466C5.48759 19.8775 5.54223 19.922 5.58514 19.9766V20.1556C5.40517 20.2451 5.22455 20.4241 5.04458 20.4241C4.75708 20.5351 4.45239 20.5957 4.14406 20.6031H3.06489C2.69459 20.632 2.3228 20.5705 1.9818 20.4241C1.71184 20.4241 1.53121 20.1556 1.44123 19.976C1.32872 19.7533 1.26726 19.5085 1.26126 19.2594V18.4546H1.17388L0.18273 18.7231C0.078238 19.0728 0.0169273 19.4338 0.000149835 19.7983C-0.00712978 20.1459 0.0866068 20.4881 0.270107 20.784C0.504798 21.0957 0.815982 21.3422 1.17388 21.5C1.66303 21.6833 2.18225 21.7743 2.70494 21.7685C3.31024 21.8028 3.91721 21.743 4.50401 21.5914C4.978 21.5126 5.4173 21.2941 5.76511 20.9643C5.94509 20.8748 6.03507 20.6958 6.12571 20.6057C6.22555 20.4422 6.28706 20.2585 6.30568 20.0681H19.6366L19.9966 20.1563Z" fill="white"/>
<path d="M25.2215 20.0662C25.5147 19.9708 25.768 19.7818 25.9421 19.5286C26.1248 19.2659 26.2193 18.9524 26.212 18.633C26.1864 18.1529 26.0307 17.6886 25.7614 17.2893C25.4204 16.7729 25.0271 16.2927 24.5877 15.8561H24.4977L23.7805 16.8418C24.1277 17.158 24.4304 17.5195 24.6803 17.9164C24.9457 18.1911 25.1323 18.5315 25.2209 18.9021C25.0295 18.9206 24.8447 18.9818 24.6803 19.0811H22.9693L22.7893 20.2458H23.963C24.3631 20.2819 24.7659 20.2204 25.1368 20.0668" fill="white"/>
<path d="M30.5354 14.5123L31.4359 15.1394L32.0665 14.2438L31.166 13.6167L30.7154 14.2438L29.8149 13.6167L29.1843 14.5123L30.0848 15.1394L30.4454 14.5123H30.5354Z" fill="white"/>
<path d="M46.7491 19.8872C46.9326 19.5913 47.0263 19.249 47.019 18.9015C47.0444 18.7275 47.0335 18.5503 46.9871 18.3807C46.9406 18.2111 46.8596 18.0529 46.7491 17.9157C46.5888 17.6376 46.3745 17.394 46.1185 17.1991C45.8815 17.0309 45.5991 16.9373 45.308 16.9307C45.038 16.9307 44.8574 16.9307 44.6775 17.1991L44.1369 17.7368C43.9666 17.9625 43.8159 18.2023 43.6863 18.4534C43.6863 18.6323 43.5063 18.7218 43.4163 18.9015C43.4163 18.9015 43.3264 19.0805 43.2364 19.0805H32.6969C32.607 19.0805 32.517 18.991 32.427 18.9015V15.8561L31.3459 16.2147V16.6628C30.9314 16.7869 30.5363 16.9679 30.1721 17.2004C29.889 17.3924 29.6446 17.6354 29.4516 17.917C29.2713 18.1119 29.1744 18.3689 29.1816 18.6336C29.1557 18.8581 29.2204 19.0837 29.3616 19.2607C29.5186 19.4358 29.7007 19.5869 29.9022 19.7089C30.1897 19.8199 30.4944 19.8805 30.8027 19.8879C31.0851 19.9151 31.3689 19.8525 31.6132 19.7089C31.7701 19.884 31.9523 20.035 32.1538 20.157C32.4413 20.268 32.746 20.3286 33.0543 20.336H42.7858C43.0591 20.3506 43.3329 20.3203 43.5963 20.2465C43.8663 20.2465 44.0469 20.0675 44.2269 19.7984C44.5079 19.9831 44.8103 20.1335 45.1274 20.2465C45.4149 20.3575 45.7196 20.4181 46.0279 20.4255C46.1836 20.4394 46.3401 20.4083 46.4785 20.336C46.5685 20.336 46.7484 20.157 46.8391 20.0675M31.2546 18.3652V18.5441H30.804C30.6192 18.5584 30.4336 18.5277 30.2634 18.4547C30.1943 18.4481 30.1302 18.4162 30.0834 18.3652C30.0345 18.3169 30.0029 18.254 29.9935 18.1862C30.0321 18.0935 30.0936 18.012 30.1724 17.9493C30.2512 17.8866 30.3446 17.8447 30.444 17.8275C30.714 17.7381 30.9846 17.6486 31.3445 17.5591V18.4547L31.2546 18.3652ZM45.6653 19.1713C45.5096 19.1852 45.3532 19.1541 45.2148 19.0818C45.0348 19.0818 44.8542 18.9028 44.6742 18.8133C44.7642 18.6343 44.9442 18.4547 45.0348 18.2757C45.0345 18.2638 45.0367 18.2521 45.0411 18.2411C45.0455 18.2301 45.0521 18.2202 45.0605 18.2118C45.069 18.2034 45.079 18.1968 45.09 18.1924C45.1011 18.188 45.1129 18.1859 45.1248 18.1862H45.486C45.4979 18.1859 45.5097 18.188 45.5208 18.1924C45.5318 18.1968 45.5418 18.2034 45.5502 18.2118C45.5587 18.2202 45.5653 18.2301 45.5697 18.2411C45.5741 18.2521 45.5763 18.2638 45.576 18.2757C45.6857 18.4124 45.7765 18.5631 45.846 18.7238C45.846 18.9028 45.936 18.9923 45.936 19.1719H45.666L45.6653 19.1713Z" fill="white"/>
<path d="M54.1351 19.4396C54.3151 19.6186 54.5857 19.7983 54.7656 19.9772C54.9771 20.1195 55.2323 20.1829 55.4862 20.1562C55.8489 20.171 56.212 20.141 56.5673 20.0667C57.089 19.9588 57.6011 19.809 58.0984 19.6186C58.5363 19.4578 58.9884 19.3379 59.4488 19.2606C59.8006 19.1576 60.1636 19.0975 60.5299 19.0817L60.7999 18.0064C60.6739 18.0251 60.5454 18.0189 60.4217 17.9882C60.2981 17.9575 60.1818 17.9029 60.0794 17.8274C59.7188 17.6485 59.3588 17.4688 58.9056 17.2898C58.5623 17.1027 58.1999 16.9525 57.8245 16.8417C57.6445 16.8417 57.3739 16.7522 57.1939 16.7522H56.7434C56.6722 16.7429 56.5998 16.7549 56.5355 16.7868C56.4713 16.8187 56.4181 16.869 56.3828 16.9312L56.0222 17.9169H57.1033C57.3175 17.9025 57.5323 17.933 57.7339 18.0064C58.0038 18.0959 58.3644 18.2749 58.6344 18.3651L59.085 18.544H58.7315L58.101 18.8125L56.7499 19.081H55.6668C55.569 19.0931 55.4697 19.0833 55.3762 19.0523C55.2826 19.0214 55.1972 18.97 55.1262 18.902C54.9552 18.811 54.8024 18.6894 54.6756 18.5434C54.4729 18.3882 54.2912 18.2074 54.1351 18.0058L53.4145 17.2918C53.1324 17.0313 52.8314 16.7918 52.514 16.5752L54.4957 15.5894L54.8563 14.2457L51.7035 15.8579L51.4335 17.1121C51.8009 17.4374 52.1914 17.7359 52.6021 18.0051C52.8852 18.1971 53.1296 18.4401 53.3226 18.7217C53.2232 18.8161 53.0976 18.8785 52.962 18.9007H50.4417C50.4379 18.5262 50.3454 18.1579 50.1718 17.8255C50.0759 17.5339 49.8858 17.282 49.6312 17.1089C49.4316 16.9357 49.1756 16.8403 48.9107 16.8403C48.6458 16.8403 48.3898 16.9357 48.1901 17.1089C47.9355 17.282 47.7455 17.5339 47.6496 17.8255C47.5379 18.1114 47.477 18.4144 47.4696 18.7211C47.4553 18.9049 47.4862 19.0894 47.5596 19.2587C47.5768 19.3576 47.619 19.4505 47.682 19.5288C47.745 19.6072 47.827 19.6684 47.9202 19.7068C48.3235 19.9601 48.7947 20.0852 49.2713 20.0654C49.0229 20.301 48.7092 20.4571 48.3708 20.5136C47.8979 20.6227 47.415 20.6827 46.9297 20.6925C47.0907 21.0312 47.2712 21.3603 47.4703 21.6783C48.3127 21.7356 49.1467 21.4805 49.8112 20.9623C50.0517 20.7388 50.2367 20.4629 50.3518 20.1562H52.874C53.1401 20.1634 53.3986 20.0671 53.5945 19.8878C53.7864 19.7866 53.9433 19.6305 54.0451 19.4396M49.3613 18.9915C49.1176 19.006 48.8733 18.9757 48.6407 18.902C48.5716 18.8955 48.5075 18.8636 48.4608 18.8125V18.3644C48.4608 18.2749 48.5507 18.1854 48.6407 18.0959C48.7254 18.0522 48.8165 18.0219 48.9107 18.0064C49.0007 18.0064 49.1806 18.0064 49.1806 18.1854C49.2706 18.2749 49.3606 18.4539 49.4506 18.544C49.4506 18.723 49.5406 18.9027 49.5406 19.0817H49.18L49.3613 18.9915Z" fill="white"/>
<path d="M1.89114 27.6809H2.61233V28.3975H1.62118C1.54365 28.3853 1.47029 28.3545 1.40745 28.3077C1.34461 28.2609 1.2942 28.1996 1.26059 28.129C1.08957 27.8608 0.996169 27.551 0.990628 27.2334C0.965502 27.0736 0.976708 26.9102 1.02342 26.7552C1.07014 26.6002 1.15118 26.4576 1.26059 26.3378C1.36335 26.2273 1.48555 26.1363 1.62118 26.0694H2.07176C2.36517 26.062 2.65191 26.157 2.88229 26.3378L3.15224 25.8002L2.61233 25.5311H1.98178C1.67054 25.5034 1.35788 25.5655 1.08127 25.7101C0.80878 25.8463 0.587672 26.0662 0.450712 26.3372C0.296392 26.6416 0.233675 26.9839 0.270089 27.3229C0.23888 27.8121 0.400502 28.294 0.72067 28.6666C0.896896 28.8374 1.11387 28.9608 1.35122 29.0253C1.62118 29.0253 1.8018 29.1148 2.07176 29.1148H2.70232C2.97227 29.1148 3.1529 28.9358 3.42285 28.8463V27.0538H1.98178V27.6809H1.89114Z" fill="white"/>
<path d="M6.66556 25.7101C6.36805 25.5276 6.0239 25.4344 5.67442 25.4416C5.36318 25.4139 5.05052 25.476 4.77391 25.6206C4.50142 25.7568 4.28031 25.9767 4.14335 26.2477C3.95985 26.5436 3.86612 26.8859 3.87339 27.2335C3.84503 27.5721 3.90712 27.9121 4.05337 28.2192C4.10798 28.3621 4.19241 28.4918 4.3011 28.5999C4.40978 28.708 4.54025 28.792 4.68392 28.8463C4.98144 29.0288 5.32559 29.122 5.67507 29.1148C5.9863 29.1425 6.29897 29.0804 6.57558 28.9358C6.71925 28.8815 6.84972 28.7975 6.9584 28.6894C7.06709 28.5813 7.15152 28.4516 7.20613 28.3087C7.38963 28.0128 7.48337 27.6705 7.47609 27.3229C7.50445 26.9843 7.44237 26.6443 7.29612 26.3372C7.2415 26.1943 7.15707 26.0646 7.04839 25.9565C6.93971 25.8484 6.80923 25.7644 6.66556 25.7101ZM6.48559 27.9494C6.46833 28.0483 6.42622 28.1412 6.36318 28.2195C6.30014 28.2979 6.21821 28.3591 6.125 28.3975C5.96062 28.4968 5.77585 28.558 5.58443 28.5765H5.22449C5.1345 28.5765 4.95453 28.3975 4.86389 28.308C4.69288 28.0398 4.59947 27.73 4.59393 27.4124C4.57503 27.2527 4.58923 27.0909 4.63566 26.9368C4.68209 26.7828 4.75977 26.6399 4.86389 26.5168C4.96665 26.4063 5.08886 26.3153 5.22449 26.2484H6.03501C6.125 26.2484 6.30497 26.4274 6.39561 26.5168C6.53483 26.7425 6.62304 26.9956 6.65411 27.2585C6.68519 27.5214 6.65839 27.7879 6.57558 28.0395" fill="white"/>
<path d="M9.27834 28.308L8.37718 25.5311H7.56665L8.82776 29.0246H9.63828L10.8994 25.5311H10.0889L9.18835 28.308H9.27834Z" fill="white"/>
<path d="M12.2506 27.5914H13.5117V26.9643H12.2506V26.1582H13.8716V25.5311H11.53V29.0246H13.9623V28.3975H12.3406V27.5914H12.2506Z" fill="white"/>
<path d="M16.8444 27.3229C16.9455 27.1278 17.0067 26.9146 17.0244 26.6958C17.0366 26.5985 17.0267 26.4998 16.9956 26.4068C16.9644 26.3138 16.9128 26.2288 16.8444 26.1582C16.7379 25.9927 16.5796 25.8667 16.3939 25.7996C16.1636 25.7084 15.9222 25.6482 15.6759 25.6206H14.5022V29.1141H15.2227V27.8599H15.4927L16.3932 29.1141H17.2937L16.3026 27.6809C16.4838 27.6809 16.6638 27.5013 16.8444 27.3229ZM16.1239 27.144C16.0476 27.2008 15.9587 27.2387 15.8646 27.2542C15.7705 27.2698 15.6741 27.2627 15.5833 27.2334H15.2227V26.1582H15.6759C15.832 26.1347 15.9915 26.1664 16.1265 26.2477C16.1754 26.296 16.207 26.3588 16.2165 26.4267V26.8748C16.2169 26.8984 16.2126 26.9219 16.2037 26.9438C16.1948 26.9657 16.1816 26.9857 16.1648 27.0024C16.148 27.0191 16.1279 27.0322 16.1059 27.0411C16.0839 27.0499 16.0603 27.0542 16.0365 27.0538L16.1239 27.144Z" fill="white"/>
<path d="M20.1772 27.9501C20.1772 27.9501 20.1772 27.7711 20.0872 27.7711L19.9072 27.5921C19.9007 27.5234 19.8686 27.4596 19.8173 27.4131L18.6435 25.6213H17.835V29.1148H18.5555V26.6984C18.5778 26.8333 18.6406 26.9583 18.7355 27.0571L19.0054 27.4157L20.0866 29.0279H20.8997V25.5311H20.1772V27.9501Z" fill="white"/>
<path d="M23.9599 27.0538C23.8699 27.3223 23.7799 27.5019 23.6899 27.7704L23.5099 27.4118C23.4876 27.277 23.4249 27.152 23.33 27.0532L22.5188 25.5311H21.7083V29.0246H22.4288V26.7853C22.4781 26.982 22.5703 27.1656 22.6987 27.323L23.3293 28.5772H23.9599L24.5904 27.323L24.8604 26.7853V29.0246H25.5816V25.5311H24.861L23.9599 27.0538Z" fill="white"/>
<path d="M27.1126 27.5914H28.4637V26.9643H27.1126V26.1582H28.7337V25.5311H26.3921V29.0246H28.8243V28.3975H27.2026V27.5914H27.1126Z" fill="white"/>
<path d="M31.707 27.9501C31.707 27.9501 31.707 27.7711 31.617 27.7711L31.437 27.5921C31.4305 27.5234 31.3984 27.4596 31.347 27.4131L30.1733 25.6213H29.3647V29.1148H30.0853V26.6984C30.1076 26.8333 30.1703 26.9583 30.2653 27.0571L30.5352 27.4157L31.6163 29.0279H32.4295V25.5311H31.707V27.9501Z" fill="white"/>
<path d="M32.9675 26.2477H34.1413V29.1141H34.8585V26.2477H36.0323V25.6206H32.9675V26.2477Z" fill="white"/>
<path d="M40.2635 25.7101C39.9659 25.5276 39.6218 25.4344 39.2723 25.4416C38.9611 25.4139 38.6484 25.476 38.3718 25.6206C38.2281 25.6749 38.0977 25.7589 37.989 25.867C37.8803 25.9751 37.7959 26.1048 37.7413 26.2477C37.5578 26.5436 37.464 26.8859 37.4713 27.2335C37.4429 27.5721 37.505 27.9121 37.6513 28.2192C37.7059 28.3621 37.7903 28.4918 37.899 28.5999C38.0077 28.708 38.1382 28.792 38.2818 28.8463C38.5793 29.0288 38.9235 29.122 39.273 29.1148C39.5842 29.1425 39.8969 29.0804 40.1735 28.9358C40.3171 28.8815 40.4476 28.7975 40.5563 28.6894C40.665 28.5813 40.7494 28.4516 40.804 28.3087C40.9875 28.0128 41.0813 27.6705 41.074 27.3229C41.1024 26.9843 41.0403 26.6443 40.894 26.3372C40.8394 26.1943 40.755 26.0646 40.6463 25.9565C40.5376 25.8484 40.4071 25.7644 40.2635 25.7101ZM40.0835 27.9494C40.0662 28.0483 40.0241 28.1412 39.9611 28.2195C39.898 28.2979 39.8161 28.3591 39.7229 28.3975C39.5585 28.4968 39.3738 28.558 39.1823 28.5765H38.7318C38.6418 28.5765 38.4618 28.3975 38.3712 28.308C38.2001 28.0398 38.1067 27.73 38.1012 27.4124C38.0823 27.2527 38.0965 27.0909 38.1429 26.9368C38.1894 26.7828 38.267 26.6399 38.3712 26.5168C38.4739 26.4063 38.5961 26.3153 38.7318 26.2484H39.5423C39.6059 26.2677 39.6639 26.3023 39.7109 26.3491C39.758 26.3959 39.7928 26.4535 39.8122 26.5168C39.9515 26.7425 40.0397 26.9956 40.0707 27.2585C40.1018 27.5214 40.075 27.7879 39.9922 28.0395" fill="white"/>
<path d="M41.6147 29.1141H42.3353V27.6809H43.5964V27.0538H42.3353V26.1582H43.9563V25.5311H41.6147V29.1141Z" fill="white"/>
<path d="M46.9323 25.5311H45.7585V29.0266H46.9323C47.2727 29.0548 47.6147 28.993 47.9234 28.8476C48.2223 28.7165 48.4737 28.4977 48.644 28.2205C48.8275 27.9246 48.9212 27.5823 48.9139 27.2347C48.9345 26.9923 48.9038 26.7482 48.8239 26.5181C48.8239 26.2497 48.554 26.07 48.3734 25.891C47.9551 25.5961 47.441 25.4677 46.9323 25.5311ZM47.9234 27.9501C47.8169 28.1156 47.6586 28.2416 47.4728 28.3087H46.4817V26.0687H46.9323C47.1464 26.0543 47.3613 26.0848 47.5628 26.1582C47.7428 26.1582 47.8328 26.3372 47.9234 26.5168C47.9813 26.6095 48.0192 26.713 48.0347 26.821C48.0502 26.929 48.0429 27.0389 48.0134 27.144C48.0402 27.3965 47.9765 27.6502 47.8334 27.8606" fill="white"/>
<path d="M51.7935 27.5915C51.8125 27.7027 51.8061 27.8168 51.775 27.9253C51.7439 28.0338 51.6887 28.134 51.6135 28.2186C51.6135 28.2186 51.4336 28.3976 51.3436 28.3976H50.625C50.535 28.3976 50.445 28.3081 50.355 28.2186C50.2792 28.1167 50.2243 28.001 50.1934 27.8781C50.1625 27.7551 50.1563 27.6273 50.1751 27.502V25.5312H49.4513V27.5915C49.4325 27.7168 49.4387 27.8446 49.4696 27.9676C49.5005 28.0905 49.5554 28.2062 49.6312 28.3081C49.67 28.4349 49.7396 28.5504 49.8339 28.6441C49.9282 28.7379 50.0443 28.8071 50.1718 28.8457C50.4453 28.9987 50.7607 29.0614 51.0723 29.0247C51.3547 29.0519 51.6386 28.9893 51.8828 28.8457C52.0104 28.8071 52.1265 28.7379 52.2207 28.6441C52.315 28.5504 52.3846 28.4349 52.4234 28.3081C52.5773 28.036 52.6403 27.7224 52.6034 27.4125V25.3522H51.8835V27.4125L51.7935 27.5915Z" fill="white"/>
<path d="M55.6667 27.4124C55.5767 27.4124 55.3967 27.2334 55.3061 27.2334C55.4861 27.2334 55.5761 27.0545 55.7567 26.965C55.7567 26.8755 55.9367 26.6965 55.9367 26.5168C55.9367 26.3372 55.9367 26.1582 55.7567 26.0687C55.6502 25.9032 55.4918 25.7772 55.3061 25.7101C55.0361 25.7101 54.8555 25.6206 54.5856 25.6206H53.3245V29.1141H54.6756C54.8504 29.1393 55.0287 29.1285 55.1992 29.0823C55.3697 29.0361 55.5288 28.9556 55.6667 28.8456C55.7567 28.8456 55.8467 28.6667 55.9367 28.487C55.9367 28.3975 56.0266 28.2185 55.9367 28.0389V27.6803C55.9367 27.5908 55.8467 27.5013 55.7567 27.4118M53.955 26.1576H54.4982C54.6782 26.1576 54.7681 26.1576 54.8588 26.2471L54.9488 26.3366V26.5155C54.9488 26.784 54.7688 26.9637 54.3182 26.9637H53.8676V26.1582L53.955 26.1576ZM55.0362 28.3074C54.8562 28.3969 54.7662 28.4864 54.5856 28.3969H54.045V27.5013H54.5856C54.7417 27.4778 54.9011 27.5094 55.0362 27.5908L55.1261 27.7698V28.1284C55.1196 28.1971 55.0875 28.2609 55.0362 28.3074Z" fill="white"/>
<path d="M57.4684 25.5311L56.2073 29.0246H57.0178L57.2878 28.2185H58.6395L58.9095 29.0246H59.72L58.4589 25.5311H57.4684ZM57.4684 27.5914L57.919 26.2477L58.3695 27.5914H57.4684Z" fill="white"/>
<path d="M60.9813 25.5311H60.2607V29.0246H60.9813V25.5311Z" fill="white"/>
<path d="M66.6562 8.15175H68.0973L70.6208 10.5707C70.5072 11.5038 70.167 12.3954 69.6296 13.1686C69.4456 13.4172 69.2942 13.6881 69.1791 13.9747V14.1537L68.9091 14.6913C68.6286 15.3939 68.388 16.1116 68.1886 16.8411C67.752 18.5384 67.54 20.2851 67.558 22.037C67.6626 25.5093 68.7226 28.8866 70.6227 31.8016C71.4228 33.0912 72.3588 34.2923 73.4149 35.3846C74.8018 36.8498 76.4114 38.0895 78.1848 39.0584C80.8294 40.6044 83.6018 41.9231 86.472 43H86.652C89.538 41.9604 92.3138 40.6401 94.9391 39.0584C96.7139 38.09 98.3248 36.8506 99.713 35.3852C100.769 34.2929 101.705 33.0918 102.505 31.8022C104.366 28.8691 105.423 25.5027 105.57 22.0376C105.582 20.2861 105.371 18.54 104.939 16.8418C104.74 16.1123 104.499 15.3946 104.219 14.692L103.949 14.2438V14.0649L103.408 13.2588C102.842 12.5007 102.499 11.6014 102.417 10.6608L104.939 8.33139H106.38C106.449 8.32485 106.514 8.29294 106.56 8.24189L106.65 8.1524L108 4.92866V4.56874H107.64L104.307 5.64202C104.238 5.64856 104.174 5.68047 104.127 5.73152C104.037 5.82101 104.127 5.82101 104.127 5.91051L103.948 7.34371L99.5336 11.3748C99.2402 10.9255 98.9985 10.4447 98.8131 9.94163C98.5431 9.49352 98.1825 8.86641 97.9126 8.32944L97.372 7.25422H97.8226L96.2015 5.01492L95.0278 3.40272C94.7804 3.08454 94.5095 2.78518 94.2173 2.50713L94.0373 2.32815L93.7674 2.05966H93.6774C93.6679 1.9918 93.6363 1.92892 93.5874 1.88067H93.4074V1.70233C93.03 1.54201 92.6365 1.4218 92.2337 1.34371H91.8783C91.6015 1.36945 91.3444 1.4974 91.1578 1.70233C90.9587 1.87192 90.804 2.08715 90.7072 2.32944C90.5194 2.69288 90.2763 3.02536 89.9867 3.31518C89.9381 3.36381 89.8749 3.39526 89.8067 3.40467C89.6711 3.42689 89.5454 3.48927 89.4461 3.58366H89.3561C89.1761 3.40467 88.9955 3.22503 88.9955 3.04604C88.8218 2.73936 88.6999 2.40633 88.6349 2.06031C88.5757 1.81106 88.485 1.57028 88.365 1.34371V1.25422C88.2955 0.926473 88.1019 0.637854 87.8244 0.448119C87.5997 0.228542 87.3194 0.0736718 87.0132 0H85.7488C85.4789 0 85.2983 0.178988 85.1183 0.448119H85.0316C84.8516 0.448119 84.671 0.627108 84.491 0.806744C84.4083 0.848778 84.3391 0.913076 84.2914 0.992308C84.2437 1.07154 84.2193 1.16252 84.221 1.25486V1.79248C84.221 1.97147 84.401 2.06096 84.5816 2.1511C84.5816 2.06161 84.4916 1.97211 84.4916 1.88262H84.9422L85.1222 2.1511C85.1711 2.19935 85.2027 2.26223 85.2122 2.33009C85.3357 2.54793 85.368 2.80534 85.3022 3.04669C85.3022 3.22568 85.1222 3.40532 84.9416 3.58431C84.8442 3.58393 84.7493 3.61537 84.6716 3.6738H84.4017C84.3038 3.68588 84.2045 3.67608 84.111 3.64512C84.0175 3.61415 83.9321 3.5628 83.8611 3.49481C83.5174 3.25472 83.2639 2.90768 83.1406 2.50843C83.1406 2.23995 82.8706 2.06031 82.69 1.88132C82.4792 1.70913 82.232 1.58654 81.9668 1.5227H81.6082C81.3644 1.50228 81.1189 1.53276 80.8876 1.61219C80.7206 1.61545 80.5604 1.67907 80.4371 1.79118C79.7551 2.2312 79.1471 2.77526 78.6354 3.40337L78.0048 4.20947L77.4675 4.92866L75.8465 7.16796H76.2938L75.7532 8.1537C75.4878 8.70956 75.187 9.24805 74.8527 9.76589C74.5616 10.1849 74.3198 10.6357 74.1322 11.1096C74.1322 11.1991 69.7183 7.16796 69.7183 7.16796L69.5383 5.73476V5.55447L69.3584 5.46498L66.0256 4.38975H65.665V4.74838L67.0161 7.97341C67.0159 7.98524 67.018 7.99699 67.0224 8.00797C67.0269 8.01895 67.0335 8.02892 67.0419 8.03728C67.0503 8.04565 67.0603 8.05223 67.0714 8.05663C67.0824 8.06104 67.0942 8.06317 67.1061 8.06291H67.2861M76.5644 6.71855H76.7444C76.9644 6.70092 77.1787 6.64008 77.3749 6.53956L77.0143 6.98768H77.7349L78.2755 6.7192C78.4554 6.7192 78.636 6.54021 78.816 6.45071H78.726C78.726 6.54021 79.3566 6.45071 79.3566 6.45071C79.8511 6.35282 80.3146 6.1377 80.7077 5.82361H81.1583C81.3382 5.73411 81.4282 5.73411 81.5189 5.64462L81.3389 5.82361H82.0594C82.3031 5.83812 82.5474 5.80778 82.78 5.73411L82.51 6.00259L82.24 6.18158L82.51 6.36057C82.6804 6.52323 82.9046 6.61866 83.1406 6.62905V6.71855L82.9606 6.98703L83.2305 7.16602H83.3205V7.4345C83.3205 7.61349 83.5005 7.70298 83.5905 7.88262C83.6293 8.0301 83.6594 8.17974 83.6805 8.33074V8.69001C83.6549 9.17013 83.4992 9.63442 83.2299 10.0337C83.0349 10.7129 82.6229 11.3105 82.0562 11.7361C81.7751 11.9207 81.4728 12.0712 81.1557 12.1842C81.3356 11.8256 81.5162 11.3781 81.6962 10.93L81.9662 10.2134C82.1461 9.76524 82.2361 9.31777 82.4168 8.95914C82.5987 8.37021 82.7491 7.7721 82.8673 7.16732C82.6501 8.04875 82.3794 8.91631 82.0568 9.76524C81.9143 10.1705 81.7333 10.5614 81.5162 10.9326C81.4488 11.1173 81.3221 11.2748 81.1557 11.3807C80.7901 11.8312 80.3298 12.1966 79.8072 12.4514C79.6272 12.4514 79.5372 12.6304 79.4466 12.6304L79.5366 12.5409C79.833 12.2043 80.0486 11.8052 80.1671 11.3735C80.2571 11.0149 80.4371 10.7464 80.5277 10.3878C80.5627 10.1725 80.6231 9.96198 80.7077 9.7607C80.8876 8.86511 81.1583 7.78988 81.3382 7.16278C81.1648 7.88953 80.9543 8.60706 80.7077 9.31258C80.4858 10.2172 80.087 11.0696 79.534 11.821C79.1891 12.2728 78.7197 12.6152 78.1829 12.8067H77.9129C78.0929 12.4481 78.2735 12.0901 78.4535 11.6394C78.4535 11.5499 78.5435 11.4604 78.5435 11.3709C79.1982 9.97011 79.682 8.49638 79.9845 6.98119C79.9845 6.62257 80.1645 6.26459 80.1645 5.90597C80.1286 6.24687 80.0374 6.57975 79.8945 6.8917C79.6246 7.87743 79.264 8.95201 78.9034 9.93969C78.718 10.4428 78.4763 10.9236 78.1829 11.3729C78.0029 11.5519 77.9129 11.7315 77.7323 11.9105C77.2654 12.453 76.6799 12.882 76.0206 13.1647C76.3731 12.6896 76.6749 12.1793 76.9211 11.642C76.9277 11.5733 76.9598 11.5095 77.0111 11.463C77.6135 10.2787 78.1253 9.05079 78.5421 7.78988C78.2592 8.59982 77.8994 9.38112 77.4675 10.1232L76.657 11.4669C76.2959 12.0501 75.8023 12.541 75.2159 12.9001H75.036L74.946 13.0791H74.766L74.676 13.1686H74.3154C74.3157 13.1804 74.3135 13.1922 74.3091 13.2032C74.3047 13.2142 74.2981 13.2241 74.2897 13.2325C74.2812 13.2408 74.2712 13.2474 74.2602 13.2518C74.2491 13.2562 74.2373 13.2584 74.2254 13.2581V13.1686L74.4028 12.9001L74.5828 12.6316C74.5984 12.538 74.6287 12.4474 74.6728 12.3632C74.9219 12.0288 75.1333 11.6682 75.3033 11.2879C75.5733 10.8398 75.8439 10.3022 76.1138 9.76524C76.5366 8.96817 76.869 8.12687 77.105 7.25681C76.6339 8.70132 75.9346 10.0621 75.0334 11.2879C74.846 11.5455 74.6349 11.7852 74.4028 12.0039L74.1328 12.1829L73.9529 12.3619L73.7729 12.5409H73.6829L73.5929 12.7198C73.4036 12.8725 73.1906 12.9936 72.9624 13.0785C72.7347 13.1798 72.4907 13.2404 72.2418 13.2575V13.0785C72.4 12.8239 72.5809 12.5841 72.7824 12.3619V12.1829C72.8506 12.1735 72.9139 12.142 72.9624 12.0934C73.0036 11.9654 73.0643 11.8444 73.1423 11.7348L73.4123 11.3761C73.4156 11.21 73.4796 11.0507 73.5923 10.928C73.8672 10.4994 74.1081 10.0501 74.3128 9.58431C74.7634 8.8677 75.0333 8.2406 75.2133 7.97211C75.3933 7.61349 75.7539 6.98638 76.0238 6.35992M85.1216 3.58301C85.3019 3.38818 85.3987 3.13111 85.3915 2.86641V2.68742C85.405 2.56106 85.3731 2.43405 85.3015 2.32879V2.14981C85.3015 2.06031 85.2115 1.97082 85.1216 1.88132H85.0316C85.0316 1.79183 85.0316 1.79183 84.9416 1.70233H84.0404V1.5227C84.1474 1.35838 84.3057 1.23353 84.491 1.16732V0.985733L84.671 0.896239V0.806096L84.8509 0.627108H86.382V0.806096H86.562V0.985733V1.16732V1.3463V1.61479C86.472 1.61479 86.292 1.4358 86.2014 1.3463C86.2014 1.3463 86.3814 1.52529 86.3814 1.61479V1.79377C86.4713 1.79377 86.5613 1.79377 86.5613 1.88327V2.41894L86.4713 2.23995H86.2914V2.14981V2.32879C86.2914 2.41829 86.4713 2.59728 86.4713 2.68742C86.4713 2.86641 86.5613 2.9559 86.6513 3.13554C86.8313 3.49416 86.8313 3.49416 86.8313 3.58366V3.76135C86.9213 3.76135 87.0113 3.94034 87.0113 3.94034C87.0821 4.10052 87.2108 4.22847 87.3718 4.29896C87.5362 4.39826 87.721 4.45943 87.9124 4.47795C88.0924 4.47795 88.363 4.47795 88.453 4.29896C88.543 4.29896 88.633 4.20947 88.7229 4.11997C89.1922 3.83175 89.5434 3.38732 89.7141 2.86576C89.7141 2.68677 89.8941 2.59728 89.984 2.41764C90.1215 2.30854 90.2731 2.21824 90.4346 2.14916H91.2452C91.3807 2.17137 91.5064 2.23375 91.6058 2.32815C92.1814 2.76631 92.6962 3.27833 93.1368 3.85084L93.2268 4.11933L93.6774 4.74643L93.8574 5.01492C93.9289 5.2027 94.0194 5.38282 94.1273 5.55253L95.1185 6.89624C94.512 6.84706 93.9404 6.59438 93.4974 6.17964C93.3174 6.00065 93.1368 5.73152 92.9568 5.55253L92.7769 5.28405C92.7769 5.19455 92.5969 5.10506 92.5969 5.01556C92.9351 5.64559 93.3278 6.24513 93.7706 6.80739V6.89689V6.98638C93.6149 7.00033 93.4584 6.96925 93.32 6.89689C92.8642 6.73585 92.4592 6.45774 92.1463 6.09079L91.9663 5.82231H91.8783C91.8783 5.64332 91.6983 5.55383 91.6983 5.46368V5.28534C91.6301 5.27593 91.5669 5.24449 91.5184 5.19585C91.5184 5.10636 91.3384 5.01686 91.3384 4.92737C91.3384 4.83787 91.1584 4.74838 91.1584 4.56874C91.1572 4.49941 91.1404 4.43123 91.1092 4.36918C91.0781 4.30714 91.0334 4.25279 90.9785 4.21012C90.9785 4.12062 90.8885 4.03113 90.7985 3.94163C91.1063 4.71184 91.4671 5.46005 91.8783 6.18093C91.9979 6.41015 92.1496 6.6213 92.3289 6.80804C91.843 6.76851 91.3912 6.54384 91.0678 6.18093H90.9778C90.9778 6.09144 90.7978 5.91245 90.7978 5.91245L90.4372 5.55383C90.1188 5.24226 89.8181 4.91316 89.5367 4.56809C89.5708 4.74444 89.6664 4.90314 89.8067 5.01621C89.8551 5.11285 89.9156 5.20305 89.9867 5.2847L90.1666 5.55318C90.2423 5.75829 90.3659 5.94256 90.5272 6.09079C90.3472 6.09079 90.2573 6.09079 90.1666 6.0013C89.7444 5.8709 89.369 5.62208 89.0855 5.2847L89.2655 5.46368C89.2655 5.64267 89.4454 5.73217 89.4454 5.82231L89.6254 6.09079C89.6257 6.10262 89.6235 6.11437 89.6191 6.12535C89.6147 6.13633 89.6081 6.1463 89.5996 6.15466C89.5912 6.16303 89.5812 6.16961 89.5702 6.17401C89.5591 6.17842 89.5473 6.18055 89.5354 6.18028C88.994 6.16935 88.4654 6.01463 88.0044 5.73217V5.91115C88.0039 5.93478 88.0083 5.95825 88.0172 5.98017C88.026 6.00208 88.0393 6.02199 88.0561 6.0387C88.0729 6.05541 88.0929 6.06858 88.1149 6.07741C88.137 6.08625 88.1606 6.09058 88.1843 6.09014C88.1909 6.15886 88.223 6.22267 88.2743 6.26913C88.4543 6.44812 88.6349 6.71725 88.8149 6.80674C88.7249 6.80674 88.6349 6.89624 88.4543 6.98573H88.0963V7.43385H87.8263C87.8263 7.61284 87.8263 7.70233 87.7364 7.79248C87.7331 7.84912 87.7147 7.90387 87.6831 7.95107C87.6515 7.99827 87.6077 8.03621 87.5564 8.06096V7.88197C87.5564 7.79248 87.5564 7.70298 87.4664 7.70298C87.4932 7.95548 87.4295 8.20928 87.2864 8.41959V9.94228C87.4086 10.07 87.5008 10.223 87.5564 10.3904C87.7249 10.8501 87.8161 11.3344 87.8263 11.8236C87.812 12.0074 87.8429 12.1919 87.9163 12.3612C87.8594 12.358 87.8043 12.3397 87.7569 12.3083C87.7094 12.2768 87.6713 12.2333 87.6464 12.1822V12.0039C87.4664 12.0039 87.4664 12.0039 87.4664 11.9144C87.4553 11.9982 87.466 12.0834 87.4975 12.1619C87.529 12.2403 87.5803 12.3094 87.6464 12.3625V12.4514L87.8263 12.6304V14.0636L87.6464 13.8846V13.7056L87.5564 14.0642L87.3764 13.7056V13.8846V13.9741L87.1964 13.5259C87.1453 13.3024 87.0538 13.0899 86.9265 12.8988C86.9269 12.802 86.8953 12.7076 86.8365 12.6304C86.8508 12.4465 86.8199 12.262 86.7465 12.0927V11.6446C86.7465 11.9131 86.6565 12.1822 86.7465 12.3612L86.5665 12.1822V12.0927H86.026C85.846 12.0927 85.756 12.2717 85.6654 12.4514C85.6654 12.2724 85.4854 12.1829 85.3048 12.0927C85.1248 12.0927 84.9442 12.0032 84.7642 12.0927V11.8243C84.763 11.8936 84.7461 11.9618 84.715 12.0238C84.6839 12.0859 84.6392 12.1402 84.5842 12.1829L84.4043 12.3619V11.8243V12.0927C84.4186 12.2765 84.3877 12.4611 84.3143 12.6304C84.3203 12.6789 84.3153 12.7282 84.2998 12.7747C84.2842 12.8211 84.2584 12.8635 84.2243 12.8988C84.118 13.1005 84.0278 13.3102 83.9543 13.5259L83.7744 14.0636V13.6187L83.5944 13.9773V13.5292H83.4144V13.6187L83.2345 13.8872V12.4514C83.3244 12.4514 83.4144 12.2724 83.5044 12.1829C83.5399 12.0249 83.6007 11.8736 83.6844 11.7348C83.6844 11.8243 83.5944 11.9137 83.5044 12.0032C83.4072 12.0514 83.3165 12.1116 83.2345 12.1822C83.2345 12.0032 83.3244 11.8236 83.3244 11.6446C83.3267 11.1546 83.4181 10.669 83.5944 10.2114C83.613 10.021 83.6745 9.83728 83.7744 9.6738V9.31518V7.88197C83.7572 7.63443 83.6963 7.39184 83.5944 7.16537L83.4144 7.34436V7.5227V7.07458C83.4144 6.98508 83.1445 6.98508 83.1445 6.98508V6.80934V6.45071H82.7839C82.7127 6.46015 82.6402 6.44814 82.576 6.41624C82.5117 6.38433 82.4585 6.33399 82.4233 6.27173C82.6894 5.99514 82.9295 5.69493 83.1406 5.37484C82.6571 5.58822 82.1379 5.70985 81.6095 5.73346H81.5195C81.6095 5.55447 81.7895 5.46498 81.8801 5.28534C81.9241 5.13011 81.9844 4.97991 82.0601 4.83722C81.7411 5.17719 81.3355 5.42484 80.8863 5.55383C80.7593 5.54045 80.6316 5.57214 80.5258 5.64332C80.6157 5.46433 80.7957 5.37484 80.8863 5.1952C81.1495 4.83678 81.3617 4.44397 81.5169 4.02789L80.6164 5.01362C80.5267 5.16011 80.4031 5.28309 80.2558 5.37224L80.0758 5.55123L79.8959 5.73022C79.5254 6.0265 79.0953 6.24034 78.6347 6.35733C78.7882 6.16901 78.91 5.95724 78.9953 5.73022C79.4277 5.02134 79.7896 4.27223 80.0758 3.49352V3.6725C79.7114 4.41126 79.2581 5.1033 78.726 5.73346C78.421 6.10899 78.0135 6.38891 77.5523 6.53956C77.3723 6.53956 77.2823 6.62905 77.1017 6.62905C77.6549 5.98171 78.1101 5.25746 78.4528 4.47925C78.1752 4.93442 77.8444 5.35541 77.4675 5.73346C77.2441 5.93388 77.003 6.11381 76.747 6.27108C76.567 6.27108 76.477 6.36057 76.2964 6.45007C76.1407 6.43612 75.9842 6.4672 75.8458 6.53956L76.837 5.19585L77.1069 4.83722L77.3769 4.4786L78.0075 3.6725C78.4564 3.07663 79.0047 2.56162 79.6285 2.14981C79.7641 2.12759 79.8897 2.06521 79.9891 1.97082H80.7996C81.0696 1.97082 81.2502 2.14981 81.4302 2.41894C81.4742 2.50316 81.5046 2.59377 81.5202 2.68742C81.5234 2.74406 81.5418 2.79881 81.5734 2.84601C81.6051 2.89321 81.6488 2.93115 81.7001 2.9559V3.13489L81.8801 3.22438C82.0726 3.50609 82.3166 3.74938 82.5993 3.94163C82.7793 4.03113 83.0499 4.21012 83.2299 4.30026H83.7705C83.874 4.29359 83.9752 4.2664 84.068 4.2203C84.1608 4.17419 84.2435 4.1101 84.311 4.03178C84.311 4.03178 84.491 3.85279 84.491 3.76329M97.1914 8.51103C97.3714 8.86965 97.732 9.40662 98.0919 10.1232C98.3668 10.5518 98.6077 11.0011 98.8124 11.4669L98.9924 11.7354V12.0039L99.1724 12.2724C99.2208 12.369 99.2813 12.4592 99.3524 12.5409V12.6304C99.368 12.724 99.3983 12.8146 99.4423 12.8988C99.6005 13.1534 99.7814 13.3932 99.9829 13.6154V13.7944C99.734 13.7774 99.4901 13.7168 99.2624 13.6154C99.025 13.551 98.808 13.4276 98.6318 13.2568H98.5418C98.5324 13.189 98.5008 13.1261 98.4518 13.0778L98.2719 12.8988H98.0919V12.7198L97.8219 12.5409C97.5868 12.3249 97.3754 12.0847 97.1914 11.8243C96.2214 10.6418 95.5152 9.26768 95.1198 7.79313V7.70428C95.3654 8.55881 95.6662 9.39669 96.0203 10.2127C96.2902 10.7503 96.5608 11.2879 96.8308 11.7354C97.1008 12.1829 97.2814 12.452 97.4614 12.8106V13.0791C97.5098 13.1758 97.5703 13.266 97.6413 13.3476L97.8213 13.6161C97.8216 13.6279 97.8194 13.6397 97.815 13.6506C97.8106 13.6616 97.8039 13.6716 97.7955 13.68C97.7871 13.6883 97.7771 13.6949 97.7661 13.6993C97.755 13.7037 97.7432 13.7058 97.7313 13.7056H97.3707C97.3707 13.6161 97.1907 13.5266 97.1907 13.5266H97.0108L96.9208 13.4371H96.7408C96.1925 12.9977 95.7076 12.4853 95.2997 11.9144C94.9959 11.4869 94.7241 11.0378 94.4866 10.5707C94.036 9.83883 93.6732 9.05703 93.4055 8.24125C93.7831 9.51626 94.2964 10.7476 94.9365 11.9144V12.0934C95.2971 12.631 95.6571 13.1686 95.9277 13.6161C95.2684 13.3334 94.6828 12.9044 94.216 12.3619C94.0399 12.2058 93.8881 12.0246 93.7654 11.8243C93.4719 11.3749 93.2302 10.8942 93.0449 10.391C92.6607 9.39315 92.3298 8.37573 92.0537 7.34306C91.9637 6.98444 91.8738 6.71595 91.7838 6.35733C91.7997 6.72167 91.8601 7.08273 91.9637 7.43256C92.3453 8.93343 92.9207 10.3789 93.6754 11.7328V12.0013C93.9985 12.3333 94.2445 12.7318 94.396 13.1686H94.126C93.5892 12.9771 93.1198 12.6346 92.7749 12.1829C92.2237 11.4635 91.8244 10.6407 91.6012 9.76394C91.4212 9.22633 91.2406 8.42023 90.9706 7.61414C91.1506 8.24125 91.3312 9.22633 91.6012 10.2121C91.5962 10.4344 91.659 10.653 91.7812 10.8392C91.7812 10.8392 91.9611 11.2873 92.1418 11.8249C92.297 12.241 92.5092 12.6338 92.7723 12.9922H92.8623C92.8623 13.0817 92.5017 12.9922 92.5017 12.9922C91.9776 12.7365 91.5164 12.3694 91.1506 11.917C91.0606 11.738 90.8806 11.6485 90.79 11.4689C90.61 11.0208 90.4294 10.6628 90.2494 10.2147C89.8888 9.13943 89.5289 7.88521 89.4389 7.61673C89.5571 8.22151 89.7076 8.81963 89.8895 9.40856C89.9994 9.83989 90.1503 10.2598 90.3401 10.6628C90.4151 10.907 90.5052 11.1463 90.61 11.3794C90.79 11.8275 90.9706 12.275 91.1506 12.6336C90.8258 12.5392 90.5208 12.3874 90.2501 12.1855C89.7301 11.7173 89.3281 11.1342 89.0764 10.4831C88.8859 10.0496 88.7351 9.59987 88.6258 9.13943V8.87095V8.69001C88.6118 8.53514 88.643 8.37953 88.7158 8.24189C88.7158 8.06291 88.8957 7.97341 88.9857 7.79377V7.5227H89.0757L89.3457 7.34371L89.1657 7.07523V6.98573C89.4357 6.98573 89.6163 6.98573 89.7963 6.71725L90.0662 6.53826L89.7963 6.35927L89.5263 6.09079C89.7063 6.09079 89.9769 6.18028 90.2468 6.18028H90.9674L90.7874 6.0013C90.9426 5.99512 91.0971 6.0258 91.238 6.09079H91.6886C92.0643 6.4484 92.5317 6.69632 93.0397 6.80739H93.6702C93.6702 6.89689 93.5802 6.80739 93.5802 6.80739L94.1208 7.07588C94.3008 7.07588 94.4814 7.16537 94.6614 7.16537H95.3819C95.3819 7.25486 95.0213 6.80674 95.0213 6.80674C95.2175 6.90727 95.4318 6.9681 95.6519 6.98573H95.8318C96.1924 7.61284 96.4624 8.23995 96.6424 8.59793M104.487 16.8418C104.938 18.4741 105.121 20.1683 105.028 21.8586C104.912 25.232 103.885 28.512 102.055 31.3547C101.256 32.5937 100.352 33.7625 99.353 34.8482C98.0184 36.3101 96.4323 37.5234 94.6692 38.4313C92.0467 39.9597 89.3058 41.2777 86.4726 42.3729C83.6627 41.3261 80.95 40.0374 78.3654 38.5214C76.652 37.5379 75.077 36.3331 73.6816 34.9384C72.6824 33.8526 71.7784 32.6838 70.9794 31.4449C69.1496 28.6022 68.1228 25.3221 68.0066 21.9488C68.0034 20.2619 68.1846 18.5798 68.5472 16.9319C68.7166 16.2922 68.9273 15.664 69.1777 15.0512L76.7418 22.9345C76.7169 23.239 76.6565 23.5395 76.5618 23.8301C76.3831 23.2801 76.1095 22.7653 75.7532 22.3087H75.3926V22.3982C75.3084 22.6646 75.2809 22.9456 75.3119 23.2231C75.3429 23.5007 75.4317 23.7688 75.5726 24.0104C75.7685 24.5677 76.1499 25.0418 76.6538 25.3541V26.5214C76.3631 25.9955 75.963 25.5374 75.48 25.1777H75.1201L75.0301 25.2672V25.3567C74.9973 25.9288 75.1558 26.4956 75.4807 26.9689C75.7645 27.4606 76.2098 27.8402 76.7418 28.0441C76.7577 28.4084 76.8181 28.7695 76.9218 29.1193C76.5784 28.6593 76.1848 28.2387 75.748 27.8651H75.3874L75.2974 27.9546V28.1336C75.3305 28.7239 75.5513 29.2885 75.928 29.7458C76.2729 30.1976 76.7422 30.54 77.2791 30.7315C77.3583 31.1022 77.4793 31.4629 77.6397 31.8067C77.2794 31.4568 76.8524 31.1821 76.3838 30.9987H76.1138V31.2672C76.2348 31.8356 76.5537 32.3432 77.0143 32.7004C77.4118 33.0772 77.9138 33.3268 78.4554 33.417C78.6315 33.7941 78.8426 34.1541 79.086 34.4922C78.6249 34.2098 78.0963 34.055 77.5549 34.0441H77.3749L77.285 34.1336V34.4922C77.412 34.7463 77.5892 34.9724 77.8058 35.1571C78.0224 35.3418 78.2742 35.4814 78.5461 35.5674C78.8802 35.7401 79.2506 35.8321 79.6272 35.8359H80.0758C80.2332 36.0634 80.4144 36.2736 80.6164 36.463C80.1875 36.2882 79.7288 36.1971 79.2653 36.1946H79.0853L78.9953 36.284V36.6407C79.321 37.1115 79.7972 37.4588 80.3464 37.6265C80.6164 37.6265 80.797 37.8054 81.067 37.8054H81.9668C82.2496 38.0657 82.5513 38.305 82.8693 38.5214L83.0493 38.7004C82.5127 38.6108 81.9648 38.6108 81.4282 38.7004H81.3382V39.059C81.5217 39.2866 81.755 39.4695 82.0203 39.5937C82.2857 39.7179 82.5761 39.7801 82.8693 39.7756H83.5898C83.9425 39.8149 84.297 39.7188 84.581 39.5071C84.8509 39.6861 85.0316 39.7756 85.3015 39.9553C85.8356 40.3073 86.4625 40.4943 87.1032 40.4929C87.7159 40.4938 88.3139 40.306 88.8149 39.9553C89.0626 39.8182 89.3031 39.6686 89.5354 39.5071C89.8329 39.6896 90.1771 39.7829 90.5266 39.7756H91.2471C91.8218 39.7071 92.3588 39.4557 92.7782 39.059V38.7004H91.0665L91.2465 38.5214C91.5164 38.3424 91.787 38.0733 92.147 37.8048H93.0475C93.2964 37.7878 93.5403 37.7272 93.768 37.6258C94.3049 37.4343 94.7742 37.0918 95.1191 36.6401V36.2815L95.0291 36.192H94.8492C94.3856 36.1945 93.9269 36.2856 93.4981 36.4604L94.0386 35.9228H94.4892C94.8658 35.919 95.2362 35.827 95.5703 35.6543C96.1023 35.4505 96.5476 35.0708 96.8315 34.5791V34.2205L96.7415 34.131H96.5615C96.0276 34.1845 95.5084 34.3365 95.0304 34.5791C95.2104 34.2205 95.481 33.8625 95.661 33.5039C96.2145 33.4525 96.7286 33.1969 97.1021 32.7873C97.5337 32.4049 97.8462 31.9075 98.0026 31.3541V31.0856H97.7326C97.2623 31.2678 96.8335 31.5419 96.4715 31.8917C96.5615 31.5331 96.7415 31.1751 96.8321 30.8165C97.3952 30.6273 97.8942 30.286 98.2732 29.8307C98.6225 29.3992 98.8132 28.862 98.8137 28.308V28.1291L98.7238 28.0396H98.3632C97.9069 28.3582 97.5098 28.7531 97.1894 29.2069C97.2054 28.8425 97.2658 28.4815 97.3694 28.1316C97.9014 27.9278 98.3466 27.5481 98.6305 27.0564C98.8162 26.8348 98.9524 26.5764 99.0301 26.2985C99.1077 26.0206 99.1251 25.7294 99.0811 25.4442V25.3547L98.9911 25.2652H98.6305C98.1681 25.6463 97.7716 26.1003 97.4568 26.6089V25.4416C97.9301 25.1178 98.2794 24.6442 98.4479 24.0979C98.6843 23.5948 98.7475 23.0282 98.6279 22.4857V22.3962H98.2673C97.9117 22.821 97.6371 23.3067 97.4568 23.8294C97.4319 23.525 97.3715 23.2244 97.2768 22.9339L104.841 15.0506C105.091 15.6634 105.302 16.2916 105.471 16.9313M71.25 11.0188L72.8711 12.5415V12.631L71.61 14.4228H72.0606L72.6011 14.2438C72.8922 14.2372 73.1746 14.1436 73.4117 13.9754C73.5916 13.9754 73.6816 13.8859 73.8622 13.7069C73.7907 13.8947 73.7002 14.0748 73.5923 14.2445H74.1328C74.1328 14.155 74.7634 13.976 74.7634 13.976L78.9067 17.8281V18.0934C78.7511 18.3129 78.6295 18.5545 78.5461 18.81C78.5043 18.2079 78.319 17.6244 78.0055 17.1077L77.9155 17.0182H77.7349C77.7349 17.0182 77.5549 17.0182 77.5549 17.1077C77.2743 17.6301 77.2097 18.2409 77.3749 18.81C77.4108 19.3462 77.6339 19.8531 78.0055 20.2432C77.8318 20.6139 77.7104 21.0067 77.6449 21.4105C77.4357 20.7999 77.1318 20.2255 76.7444 19.7082H76.3838V19.7977C76.2946 20.0106 76.2487 20.2389 76.2487 20.4695C76.2487 20.7001 76.2946 20.9285 76.3838 21.1414L69.8983 14.4228L70.0783 14.0642C70.2623 13.8156 70.4137 13.5448 70.5288 13.2581C71.0685 12.5435 71.4381 11.7164 71.61 10.8392M75.1201 13.7957L75.4807 13.6167L75.3007 13.8852H75.1201V13.7957ZM77.5523 13.4371C77.864 13.4738 78.1793 13.4111 78.4528 13.2581H79.444C79.7014 13.2239 79.9478 13.1321 80.1645 12.9896C80.3355 12.8986 80.4883 12.777 80.6151 12.631L80.3451 12.9896L80.8857 12.8106L81.3363 12.6316H81.5162C81.8955 12.4565 82.2574 12.2466 82.5974 12.0045C82.8533 11.8097 83.0677 11.5661 83.2279 11.2879V12.0039V14.6018H83.1406C83.0917 14.5958 83.0421 14.6007 82.9954 14.6162C82.9487 14.6317 82.9061 14.6573 82.8706 14.6913C82.7806 14.7808 82.6906 14.9598 82.6006 15.0499V15.5875V15.677C81.9411 16.1835 81.3638 16.7879 80.889 17.4689L80.5284 17.1102C80.9129 16.657 81.2174 16.1421 81.4289 15.5875V15.2289H81.1583C80.5527 15.3249 80.0059 15.6448 79.6272 16.1245L76.745 13.5266C77.0642 13.3809 77.3662 13.2006 77.6455 12.989C77.6455 13.0785 78.0061 13.168 78.0061 13.168L77.5523 13.4371ZM84.3078 14.6044C84.3563 14.653 84.4195 14.6845 84.4877 14.6939H84.9383C84.7583 14.6939 84.5777 14.8729 84.3978 14.9624C84.3078 14.9624 84.2178 15.0519 84.1278 15.1414V15.2309H83.9478V15.0519C83.9478 14.8729 83.9478 14.8729 84.0378 14.7834L84.1278 14.6939C84.1278 14.6939 84.1278 14.5149 84.2178 14.5149V14.2464C84.2272 14.3172 84.2151 14.3892 84.183 14.4531C84.1509 14.5171 84.1004 14.57 84.0378 14.6051C84.0312 14.6738 83.9992 14.7376 83.9478 14.784L83.7678 14.963V15.142V15.321V15.2315H83.6779V14.963H83.7678L83.9478 14.784C83.9963 14.6874 84.0567 14.5972 84.1278 14.5156C84.1278 14.5156 84.1278 14.6946 84.0378 14.6946C83.9687 14.7011 83.9046 14.733 83.8578 14.784C83.7887 14.7906 83.7246 14.8225 83.6779 14.8735V15.0525V15.142V14.7834V14.6044H83.7678C83.8521 14.6155 83.9378 14.6049 84.0167 14.5735C84.0956 14.5422 84.1651 14.4912 84.2184 14.4254C84.2734 14.3827 84.3181 14.3284 84.3492 14.2664C84.3803 14.2043 84.3972 14.1361 84.3984 14.0668C84.5582 13.7936 84.6507 13.4867 84.6684 13.1712L84.8483 13.7088L85.0283 13.3502V13.8878M88.631 13.5292L88.901 14.1563V13.9773C88.9909 13.9773 88.9909 14.0668 88.9909 14.1563V14.332C88.811 14.511 88.5404 14.332 88.3604 14.6005H88.1804C87.9956 14.6147 87.8101 14.584 87.6399 14.511L87.4599 13.7944V13.8839C87.4665 13.9526 87.4985 14.0164 87.5499 14.0629C87.5499 14.1524 87.7298 14.2419 87.8198 14.2419H88.0963V13.8833C88.0063 13.8833 88.0063 13.6148 88.0063 13.6148C88.0287 13.7496 88.0914 13.8746 88.1863 13.9734C88.2348 14.022 88.298 14.0535 88.3663 14.0629H88.7269V13.6187L88.1863 11.9163C88.2763 12.0058 88.3663 12.1848 88.4562 12.275C88.4562 12.3645 88.5462 12.454 88.6362 12.5434C88.6702 12.7722 88.7632 12.9882 88.9062 13.1706M89.1761 13.8872L89.3561 14.1556V13.6187C89.5361 13.8872 89.6261 14.1563 89.8067 14.4248C89.8067 14.5143 89.8967 14.6038 89.9867 14.7834C90.0766 14.7834 90.2566 14.9624 90.4372 14.9624H90.5272V15.1414V15.4099V15.0512C90.4581 15.0447 90.394 15.0128 90.3473 14.9617C90.2782 14.9552 90.214 14.9233 90.1673 14.8722C90.1673 14.8722 90.0773 14.6933 89.9873 14.6933V14.4228V14.6913C89.9873 14.7808 89.9873 14.8703 90.1673 14.9598C90.2158 15.0084 90.279 15.0399 90.3473 15.0493H90.4372L90.5272 15.1388V15.4073H90.4372V15.4994V15.3204C90.4372 15.3204 90.4372 15.2309 90.2573 15.1414L90.1673 15.0519C90.1673 14.9624 90.0773 14.8729 89.9873 14.6933V14.9617C89.9939 15.0305 90.026 15.0943 90.0773 15.1407L90.1673 15.2302C90.1673 15.2302 90.2573 15.2302 90.2573 15.4092V15.5882H90.0773V15.4086C90.0288 15.3599 89.9656 15.3285 89.8973 15.3191C89.6766 15.1643 89.4337 15.0434 89.1768 14.9604H89.6274C89.6965 14.9539 89.7606 14.922 89.8073 14.8709C89.8073 14.692 89.8973 14.5123 89.8073 14.3333M93.0501 12.631C93.2301 12.7205 93.32 12.81 93.5007 12.8995C93.7377 13.0677 94.0201 13.1613 94.3112 13.168H95.3023C95.5923 13.2704 95.8956 13.3307 96.2029 13.347H96.5634C96.8334 13.347 97.104 13.6154 97.464 13.7056L94.5818 16.393C94.4118 16.1298 94.1873 15.9058 93.9233 15.7358C93.6592 15.5658 93.3618 15.4538 93.0507 15.4073H92.7808V15.7659C93.027 16.3032 93.3288 16.8135 93.6813 17.2886L93.3207 17.6472C92.8524 17.016 92.308 16.4443 91.6996 15.9449L91.5197 15.7659V15.2283C91.5197 15.0493 91.4297 14.9598 91.2497 14.8696C91.1523 14.87 91.0575 14.8386 90.9798 14.7802H90.8898V11.5564C91.0771 11.8142 91.2882 12.0541 91.5203 12.273C91.8409 12.5223 92.2086 12.7051 92.6015 12.8106L93.232 12.9896L93.7726 13.1686L93.5026 12.7205L93.0501 12.631ZM98.3645 14.0642L94.9417 17.2892L94.7618 17.0208L97.9145 14.1543H98.3651L98.3645 14.0642ZM98.2745 13.7056C98.3645 13.7056 98.4545 13.7951 98.6351 13.8846L98.4551 14.0636L98.2751 13.7951M94.1319 31.8885C94.03 32.136 93.9094 32.3755 93.7713 32.6051L93.6813 32.784C93.3426 33.3856 92.9497 33.9554 92.5076 34.4864C91.795 35.3003 91.0112 36.0497 90.1653 36.7257C89.9542 36.9405 89.7112 37.1218 89.4448 37.2633C89.2178 37.4326 88.9767 37.5825 88.7242 37.7114C88.4543 37.8904 88.2737 37.9799 88.0037 38.1595V37.7114V37.5324V37.3541C87.9137 35.7419 87.8237 34.1291 87.8237 32.6064V31.8917C88.5443 32.9669 88.3643 35.2957 88.3643 35.2957V35.3852H88.4543C88.7859 35.0393 89.0056 34.6024 89.0848 34.131C89.1448 33.6519 89.1143 33.1658 88.9949 32.6978C89.3797 33.26 89.6265 33.9041 89.7154 34.5785V34.668H89.8954C90.0755 34.1455 90.0755 33.5782 89.8954 33.0558C89.7721 32.5094 89.4903 32.0111 89.0848 31.6226C89.4144 31.6917 89.7046 31.8842 89.8954 32.1602C90.1358 32.3837 90.3209 32.6596 90.4359 32.9663H90.6159V32.8794C90.6915 32.373 90.5618 31.8575 90.2553 31.4462C89.8205 30.9088 89.2183 30.5306 88.5436 30.3709H89.5348C89.854 30.4076 90.1455 30.5688 90.3453 30.8191H90.5253V30.7296C90.4241 30.3682 90.2016 30.0521 89.8947 29.834C89.2662 29.4779 88.5223 29.3815 87.8231 29.5655C88.099 29.3928 88.4041 29.2713 88.7236 29.2069C89.0524 29.1621 89.3859 29.1621 89.7147 29.2069H89.8947V29.0279C89.8947 28.9384 88.9942 27.8606 87.1925 28.8489C87.2411 28.6065 87.3676 28.3863 87.5531 28.2218C87.7294 28.051 87.9463 27.9276 88.1837 27.8632H88.2737V27.6842C88.2737 27.5947 88.2737 27.6842 88.1837 27.6842C87.8429 27.6478 87.4987 27.7099 87.1925 27.8632C86.9094 28.0551 86.665 28.2982 86.472 28.5798C86.279 28.2982 86.0346 28.0551 85.7515 27.8632C85.4453 27.7099 85.1011 27.6478 84.7603 27.6842V27.8632C85.0041 27.9114 85.2254 28.0373 85.3909 28.2218C85.5625 28.3971 85.6866 28.6129 85.7515 28.8489C83.9498 27.8632 83.1393 28.8489 83.0493 29.0279V29.2069H83.2292C83.5534 29.1168 83.8962 29.1168 84.2204 29.2069C84.5399 29.2713 84.845 29.3928 85.1209 29.5655C84.4194 29.4266 83.6915 29.5209 83.0493 29.834C82.8693 29.9235 82.7793 30.1025 82.5987 30.1926L82.3287 30.7302V30.8197H82.5087C82.736 30.604 83.015 30.4498 83.3192 30.3716H84.3104C83.6301 30.518 83.0239 30.8988 82.5987 31.4468C82.3124 31.8674 82.1847 32.375 82.2381 32.88V32.9695H82.4181C82.5446 32.6688 82.7281 32.3952 82.9586 32.1634C83.2071 31.9538 83.4791 31.7734 83.7692 31.6258C83.3326 31.9896 83.0445 32.4991 82.9586 33.059C82.8685 33.5927 82.8685 34.1376 82.9586 34.6712H83.1406V34.5817C83.2606 33.9156 83.505 33.2777 83.8611 32.701C83.6971 33.161 83.6659 33.6575 83.7711 34.1342C83.8887 34.5923 84.1038 35.02 84.4017 35.3885H84.4916V35.299C84.4916 35.299 84.3117 32.9695 85.0322 31.8949V32.6978C85.0322 34.2205 84.9422 35.8333 84.8522 37.356V37.535V37.8035V38.3411L84.2217 37.9825C83.9517 37.8035 83.7711 37.714 83.5012 37.5344C83.2312 37.3547 83.0506 37.1757 82.7806 36.9968C81.8938 36.3689 81.1043 35.6154 80.4371 34.7601C79.9949 34.229 79.6021 33.6593 79.2633 33.0577C79.2637 32.9608 79.2321 32.8665 79.1734 32.7892C79.0351 32.5598 78.9145 32.3202 78.8128 32.0726C78.3461 30.8887 78.0136 29.6567 77.8216 28.3995V27.144H93.8547V28.3113C93.7055 29.577 93.3716 30.8144 92.8636 31.9844M94.4853 34.4929V34.7601L94.2153 35.1187H94.1254C93.9709 34.7499 93.9091 34.3492 93.9454 33.9514V33.5927C93.9748 33.3762 94.0354 33.165 94.1254 32.9656V32.607C94.3182 33.1527 94.3798 33.7357 94.3053 34.3093M93.2242 36.9968C93.7795 36.7947 94.3525 36.6447 94.9359 36.5486C94.6782 36.9135 94.2925 37.1692 93.8547 37.2652C93.6347 37.2829 93.4204 37.3437 93.2242 37.4442H92.6836L93.2242 36.9066M92.5037 36.9066L92.2337 37.1751V35.9228C92.2276 35.8742 92.2326 35.8249 92.2482 35.7785C92.2637 35.732 92.2895 35.6896 92.3237 35.6543C92.4267 35.3175 92.6512 35.0304 92.9542 34.8482C92.9527 35.4261 92.8617 36.0003 92.6843 36.5506C92.6843 36.7296 92.5943 36.8191 92.5043 36.9987M93.1349 36.3716C93.3191 35.823 93.4104 35.2477 93.4048 34.6693V34.5798L93.6748 34.2211C93.6682 34.6541 93.7605 35.083 93.9447 35.4754V35.5648C93.7303 35.8552 93.489 36.1251 93.2242 36.3709M90.612 39.1479C90.7677 39.1618 90.9242 39.1307 91.0626 39.0584C91.5132 39.0584 91.9631 38.9689 92.4137 38.9689H92.7743C92.6158 39.144 92.4209 39.2827 92.2031 39.3756C91.9854 39.4684 91.75 39.5131 91.5132 39.5065H90.8826C90.6684 39.5209 90.4536 39.4904 90.252 39.417L90.6126 39.1485M89.9821 38.9695C89.9931 38.4311 90.1487 37.9054 90.4327 37.4468C90.6257 37.1652 90.8701 36.9222 91.1532 36.7302C91.0277 37.2554 90.8465 37.7658 90.6126 38.2529C90.6126 38.4319 90.4327 38.5214 90.3427 38.701L90.0727 38.88M90.9732 38.2529C91.2335 37.7454 91.4157 37.202 91.5138 36.6407V36.5499L92.0544 36.1018C92.0092 36.5187 92.0092 36.9392 92.0544 37.356C91.8068 37.5924 91.5352 37.8026 91.2439 37.9831L90.9739 38.1621M89.7128 39.1479C89.4428 39.3268 89.2622 39.4163 88.9922 39.596C88.5354 39.8888 88.0034 40.0445 87.4599 40.0445C86.9164 40.0445 86.3844 39.8888 85.9275 39.596L85.207 39.1479C85.2361 38.6926 85.1749 38.236 85.027 37.8041C85.207 37.9831 85.4776 38.0726 85.6576 38.2523C85.8375 38.3418 86.1981 38.6109 86.3781 38.7004C86.6783 38.8763 87.0204 38.9691 87.3689 38.9691C87.7174 38.9691 88.0595 38.8763 88.3597 38.7004C88.6297 38.5214 88.8103 38.4319 89.0803 38.2523C89.3052 38.1246 89.5165 37.9744 89.7108 37.8041C89.5194 38.2247 89.4568 38.6921 89.5309 39.1479M84.9409 34.7601C84.6714 34.3007 84.5757 33.7607 84.671 33.2374C84.7241 32.7126 84.983 32.2299 85.3915 31.8936V31.7121C84.6045 32.247 84.0308 33.0393 83.7705 33.9514C83.7378 33.3792 83.8962 32.8124 84.221 32.3392C84.5659 31.8874 85.0353 31.545 85.5721 31.3534V31.1744H85.4821C84.5748 31.3208 83.7297 31.7264 83.0499 32.3418C83.0482 32.2494 83.0726 32.1584 83.1203 32.0792C83.168 32 83.2372 31.9357 83.3199 31.8936C83.5785 31.6073 83.8827 31.3652 84.2204 31.177C84.5837 30.9935 84.9867 30.9013 85.3941 30.9086H85.4841V30.8191C85.1866 30.6366 84.8424 30.5433 84.493 30.5506C84.1233 30.522 83.7522 30.5835 83.4118 30.7296C83.7819 30.4771 84.2246 30.3513 84.6729 30.3709C85.1115 30.3203 85.5547 30.4147 85.934 30.6394H86.024V30.4604C85.4666 29.9066 84.7357 29.5588 83.9524 29.4747C84.3114 29.4299 84.6746 29.4299 85.0335 29.4747C85.3992 29.53 85.7423 29.6851 86.0247 29.9228C85.9972 29.4803 85.8044 29.0639 85.4841 28.7555C85.6641 28.7555 85.8447 28.9345 86.0247 29.1141L86.2946 29.6518H86.4746C86.4718 29.547 86.495 29.4432 86.542 29.3494C86.5891 29.2556 86.6587 29.1749 86.7446 29.1141C86.8056 29.0212 86.885 28.9414 86.9779 28.8798C87.0708 28.8182 87.1753 28.7759 87.2851 28.7555C87.1177 28.9014 86.983 29.0808 86.8899 29.2819C86.7967 29.483 86.7472 29.7014 86.7446 29.9228C87.0269 29.6851 87.37 29.53 87.7357 29.4747H88.8136C88.0195 29.5195 87.2752 29.8736 86.7419 30.4604V30.6394H86.8319C87.2285 30.4623 87.6583 30.3707 88.093 30.3707C88.5278 30.3707 88.9576 30.4623 89.3541 30.6394C88.9936 30.6394 88.6336 30.5499 88.273 30.5499C87.9235 30.5427 87.5794 30.6359 87.2819 30.8184V30.9079H87.3718C87.7781 30.9108 88.1788 31.0025 88.5456 31.1764C88.8833 31.3645 89.1875 31.6066 89.4461 31.893C89.5361 32.072 89.6261 32.1615 89.716 32.3411C89.0253 31.7421 88.1852 31.3389 87.2838 31.1738H87.1938V31.3528C87.7307 31.5443 88.2001 31.8868 88.5449 32.3385C88.8698 32.8118 89.0283 33.3786 88.9955 33.9507C88.7351 33.0387 88.1615 32.2463 87.3745 31.7114V31.8904C87.752 32.2516 88.0047 32.7225 88.0963 33.2354C88.1467 33.7579 88.0534 34.2842 87.8263 34.7581C87.8263 33.7724 87.7364 32.0707 86.9258 31.3541V31.5331V32.0707C86.9262 32.1676 86.8946 32.2619 86.8358 32.3392V32.6978C86.8358 32.7873 86.8358 32.8768 86.6559 33.0564L86.4759 32.3398V31.5331V31.2646H86.3859C85.5754 31.9812 85.4854 33.6835 85.4854 34.6686M87.0165 38.43H86.2053V37.7147V37.2665C86.2953 36.2808 86.3853 35.2957 86.3853 34.2185H86.5652C86.5325 35.2379 86.5928 36.258 86.7452 37.2665V38.6102M81.8814 36.1018L82.422 36.5499V36.6407C82.4781 37.2117 82.6629 37.7627 82.9625 38.2529L82.6926 38.0739C82.4333 37.8876 82.1921 37.6777 81.972 37.4468C82.1075 37.0396 82.1075 36.5998 81.972 36.1926M82.7826 38.9695C82.9625 38.9695 83.0525 38.9695 83.1432 39.059L83.5038 39.3275C83.3238 39.3275 83.0532 39.417 82.8732 39.417H82.2427C81.7765 39.3719 81.3359 39.184 80.9815 38.8794C81.5536 38.8645 82.1259 38.8944 82.6932 38.9689M83.5937 38.7899C83.5038 38.6109 83.4138 38.5214 83.3238 38.3418C83.0646 37.8655 82.8822 37.3516 82.7832 36.8191C83.0863 36.9859 83.336 37.2342 83.5038 37.5357C83.5038 37.6252 83.5937 37.7147 83.6837 37.8041C83.868 38.1965 83.9603 38.6254 83.9537 39.0584L83.6837 38.8794L83.5937 38.7899ZM80.8016 36.3709C80.5828 36.1099 80.3398 35.87 80.0758 35.6543L79.9858 35.5648C80.1701 35.1725 80.2624 34.7436 80.2558 34.3106L80.5258 34.6693V34.7601C80.4826 35.3406 80.575 35.9232 80.7957 36.4624M80.7057 37L81.2463 37.5376H80.7057C80.5938 37.5497 80.4805 37.5397 80.3724 37.5082C80.2643 37.4767 80.1636 37.4243 80.0758 37.3541C79.639 37.2585 79.2532 37.0041 78.9953 36.6407C79.5922 36.6625 80.1774 36.8156 80.7077 37.0888L80.7057 37ZM81.1563 36.5519C80.9789 36.0016 80.8879 35.4274 80.8863 34.8495C81.1446 35.0773 81.3584 35.3506 81.5169 35.6556C81.5109 35.7042 81.5158 35.7536 81.5314 35.8C81.5469 35.8465 81.5727 35.8889 81.6069 35.9241C81.742 36.3314 81.742 36.7711 81.6069 37.1783L81.3369 36.9099C81.3369 36.7309 81.2469 36.6414 81.157 36.4617M79.8059 35.2075L79.5359 34.8489V34.5804C79.5209 34.0115 79.551 33.4423 79.6259 32.8781V33.0571C79.7159 33.0571 79.8059 33.2361 79.8059 33.2361C79.9186 33.4264 79.9805 33.6423 79.9858 33.8632V34.2218C80.015 34.6194 79.9535 35.0185 79.8059 35.3891M82.8706 16.487C82.9499 16.5745 83.0473 16.6438 83.1562 16.6902C83.2651 16.7366 83.3828 16.7588 83.5012 16.7555C83.7711 16.7555 83.7711 16.5765 83.7711 16.5765H84.1317C84.2291 16.5769 84.324 16.5455 84.4017 16.487L84.4916 16.3975C84.5816 16.308 84.4916 16.308 84.4916 16.2185C84.4916 16.2185 84.4916 16.0396 84.0411 16.0396V15.9501H84.1311C84.8924 15.5961 85.7225 15.4126 86.563 15.4126C87.4034 15.4126 88.2335 15.5961 88.9949 15.9501V16.0396C88.5443 16.0396 88.5443 16.308 88.5443 16.308V16.5765C88.6417 16.5761 88.7365 16.6076 88.8142 16.666H89.1748V16.7555H89.2648C89.3137 16.7615 89.3633 16.7566 89.41 16.7411C89.4567 16.7256 89.4993 16.7 89.5348 16.666C89.6248 16.666 89.7147 16.5765 89.8047 16.487H90.1653C90.8733 16.967 91.4844 17.5748 91.967 18.2789L92.147 18.5473L92.3269 18.8158L92.5069 19.0843V19.2607C92.8009 19.8041 93.0422 20.3741 93.2275 20.963C93.214 21.0894 93.2459 21.2164 93.3174 21.3217C93.855 22.7545 94.1295 24.2716 94.128 25.8009V26.6965H90.6153C90.7886 26.2954 90.9097 25.8739 90.9758 25.4423C90.9758 25.2633 90.9758 25.0837 91.1558 24.9942V24.9027L91.4258 24.1861L88.453 24.4546H88.273L88.0031 24.9922C87.8339 24.7565 87.7398 24.4757 87.7331 24.1861V22.6647C87.7168 21.7594 87.9338 20.865 88.3637 20.0668C88.7916 19.1964 89.4441 18.4546 90.2547 17.917V17.738H90.1647C88.5197 18.7 86.9263 19.7466 85.3909 20.8735L85.1209 19.8878V19.7983H85.0316V21.4105C84.7616 21.4105 84.671 21.5895 84.581 21.5895L84.311 21.7685L83.9504 22.1271L83.5898 22.3956C82.3251 23.3979 81.122 24.4748 79.9871 25.6206H82.0588C82.3454 26.0703 82.712 26.4643 83.1406 26.7834H78.816V25.7977C78.8587 24.2726 79.1319 22.7626 79.6265 21.3184C79.6489 21.1836 79.7116 21.0586 79.8065 20.9598C80.0088 20.4064 80.2496 19.8677 80.5271 19.3476V18.989L80.797 18.7205L80.977 18.452L81.157 18.1835C81.6621 17.4726 82.2691 16.839 82.9586 16.3029H83.0486M83.0493 15.9449C83.0558 16.0136 83.0879 16.0774 83.1393 16.1239V16.3029C83.1393 16.3029 82.9593 16.1239 82.9593 16.0344V15.9449M83.7698 15.9449H84.1304C83.9504 15.9449 83.8604 15.9449 83.7698 15.8554M85.9314 14.6012L86.0214 14.5117C86.1326 14.4095 86.2241 14.2879 86.2914 14.153C86.3036 14.2302 86.3346 14.3031 86.3817 14.3656C86.4287 14.4281 86.4904 14.4782 86.5613 14.5117L86.6513 14.6012H85.9314ZM89.0842 15.9449C88.9359 15.9835 88.7854 16.0134 88.6336 16.0344C88.6336 16.0344 88.8136 16.0344 88.8136 15.9449C88.8293 15.9241 88.8497 15.9072 88.8731 15.8955C88.8966 15.8839 88.9224 15.8779 88.9486 15.8779C88.9747 15.8779 89.0006 15.8839 89.024 15.8955C89.0474 15.9072 89.0685 15.9241 89.0842 15.9449ZM89.5341 16.3035V16.1245C89.5407 16.0558 89.5728 15.992 89.6241 15.9455V16.035C89.5757 16.1317 89.5152 16.2219 89.4441 16.3035M90.1647 15.9449V15.5863V16.0344M93.3174 18.0947L93.0475 18.3632H92.7775C92.7775 18.2737 92.5976 18.1842 92.5976 18.1842L92.9581 17.8256L93.2281 18.094L93.3174 18.0947ZM92.1437 15.8554C92.5996 16.0164 93.0045 16.2945 93.3174 16.6615V16.8405C93.3857 16.8499 93.4489 16.8813 93.4974 16.93V17.0195C93.5459 17.1161 93.6063 17.2063 93.6774 17.2879C93.6713 17.3365 93.6763 17.3858 93.6918 17.4323C93.7074 17.4787 93.7332 17.5212 93.7674 17.5564V18.0045L93.6774 17.915H93.5874C93.5874 17.7361 93.4074 17.7361 93.3174 17.6466L93.1375 17.4676L93.0475 17.1991C92.7165 16.7724 92.4156 16.3234 92.147 15.8554M81.3382 24.0979H81.2495C81.9303 23.4272 82.6522 22.7991 83.4112 22.2172L83.7718 21.9488L84.1324 21.6803L84.493 21.4118L84.223 24.7263H82.6893C82.6893 24.7263 82.5993 24.7263 82.5094 24.5473C82.3823 24.5607 82.2546 24.529 82.1488 24.4578C82.0588 24.4578 81.8788 24.2789 81.6982 24.1894H81.6082M81.3382 24.9955H80.0758C80.0758 25.085 80.9763 24.2789 80.9763 24.2789L81.0663 24.5473C81.0663 24.7263 81.2463 24.8158 81.3363 24.9955M87.1912 22.7562V24.0104C87.1995 24.2723 87.2944 24.5241 87.4612 24.727H86.2053L85.0316 20.7853C86.0227 20.0687 87.1032 19.4416 88.3643 18.546C88.0943 18.9047 87.9137 19.2626 87.6438 19.6213C87.1736 20.5369 86.9268 21.5497 86.9232 22.5778V22.7568M87.7337 25.1757V25.3547H86.4726V25.0863H87.7337M85.6621 24.9968H86.1127V25.2652H85.6621M86.0227 24.7276H85.3922L84.9416 21.2341L85.9327 24.7276H86.0227ZM85.2122 25.2652V25.4442H84.4017V25.2652H85.2122ZM84.3117 25.0863C84.3117 24.9968 85.2122 24.9073 85.2122 24.9073V25.0863H84.3117ZM85.0322 24.7276H84.3117L84.5816 21.1446L84.8516 23.3839L85.0322 24.7276ZM82.6 25.1757H82.78L84.311 24.9968C83.7765 25.1005 83.2343 25.1604 82.69 25.1757H82.6ZM83.9511 25.2652V25.4442H82.6893C83.1021 25.34 83.5248 25.2791 83.9504 25.2626L83.9511 25.2652ZM81.6088 24.7276H81.9668V24.8171H81.7869C81.7457 24.6891 81.685 24.5682 81.6069 24.4585H81.7869M82.5974 25.3541C82.6874 25.5331 82.8673 25.7127 82.958 25.8917C83.1751 26.1525 83.4163 26.3924 83.6785 26.6083H83.2279L82.1468 25.5331H82.5074L82.5974 25.3541ZM83.2279 25.6226H88.8136L89.4441 25.5331H90.0747L90.4353 25.4436H90.6153L90.0747 26.6978H84.1297L83.3192 25.8917M88.6336 24.7244V24.546H89.6248V24.725L88.6336 24.7244ZM89.3541 25.083C89.3541 25.1725 89.0842 25.1725 89.0842 25.1725C89.0848 25.083 89.3541 25.083 89.3541 25.083ZM88.7236 25.083C88.7236 25.1725 88.4536 25.1725 88.4536 25.1725C88.4543 25.083 88.7236 25.083 88.7236 25.083ZM89.9847 25.083C89.9847 24.9935 90.2547 24.9935 90.2547 24.9935H89.9873M90.9785 25.4416C90.9991 25.6361 90.9776 25.8327 90.9154 26.0181C90.8532 26.2036 90.7517 26.3737 90.6179 26.5169L91.0684 25.4416H90.9785ZM90.1679 24.546V24.3671H91.1591V24.546L90.1679 24.6355V24.546ZM80.1671 18.1855H79.9871C79.9871 18.275 79.6265 18.0065 79.6265 18.0065L79.8965 17.738L80.3471 18.0966H80.2571L80.1671 18.1855ZM79.8972 17.2899V17.4689H79.7172L79.5372 17.6479L79.2673 17.8268H79.0873C79.0778 17.8947 79.0462 17.9576 78.9973 18.0058V17.7374L79.086 17.38V17.1115C79.1542 17.1021 79.2174 17.0707 79.2659 17.022H79.3585C79.3741 16.9284 79.4045 16.8378 79.4485 16.7536C79.7614 16.3866 80.1664 16.1085 80.6223 15.9475C80.3536 16.4155 80.0527 16.8645 79.7217 17.2912M78.9112 18.4585H79.0912L79.3611 18.6375L78.5506 19.1751C78.651 18.9554 78.7717 18.7455 78.9112 18.548M78.6413 19.4436C78.9812 19.2015 79.3432 18.9916 79.7224 18.8165H79.8124L79.9924 18.727V19.0856C79.895 19.2518 79.7735 19.4028 79.6318 19.5337L79.4518 19.7127C79.1231 19.9904 78.7091 20.1485 78.2781 20.1608V19.8923C78.3846 19.7268 78.5429 19.6008 78.7286 19.5337M79.2692 20.0713C79.2753 20.1199 79.2703 20.1692 79.2547 20.2157C79.2392 20.2621 79.2134 20.3046 79.1792 20.3398C78.6832 20.5639 78.227 20.8663 77.8281 21.2354L78.0981 20.4293C78.5128 20.4064 78.9157 20.2833 79.2718 20.0707M77.7408 19.8917C77.4987 19.5441 77.3442 19.1438 77.2902 18.7244C77.2151 18.2687 77.2768 17.8011 77.4675 17.38C77.7005 17.8911 77.8524 18.4349 77.9181 18.9922V19.3508L77.7381 19.799M77.6482 21.7698C78.0765 21.4124 78.5279 21.0831 78.9993 20.784V21.1414C78.9993 21.3204 78.8193 21.5 78.6387 21.679C78.6387 21.7685 78.4587 21.858 78.3687 21.9475C78.0738 22.2074 77.7393 22.4191 77.3775 22.5746L77.5575 22.037L77.6475 21.858M78.458 22.2166C78.458 22.3956 78.368 22.5752 78.368 22.7542C77.9143 23.0386 77.5165 23.403 77.1943 23.8294C77.2017 23.5228 77.2626 23.2198 77.3743 22.9339V22.8444C77.8224 22.7641 78.2333 22.5445 78.548 22.2172M77.1969 24.2776C77.5416 23.8448 77.9355 23.453 78.3707 23.1102C78.3639 23.3998 78.2699 23.6806 78.1007 23.9163C78.1007 24.0953 77.9207 24.1848 77.8307 24.275C77.5836 24.5384 77.3122 24.7783 77.0202 24.9916V24.454L77.2002 24.275L77.1969 24.2776ZM76.927 22.3969C76.8158 22.2947 76.7243 22.1731 76.657 22.0383C76.4868 21.8125 76.336 21.5727 76.2064 21.3217C76.0133 20.9002 75.9497 20.4313 76.0238 19.9741C76.3809 20.4309 76.6552 20.9462 76.8344 21.4968C76.8344 21.6757 76.9244 21.7652 77.0143 21.9449V22.3087M76.9244 30.3709C76.4954 30.2079 76.1208 29.9287 75.8432 29.5649C75.5627 29.2051 75.4049 28.7657 75.3926 28.3106C75.8294 28.6842 76.223 29.1048 76.5664 29.5649L76.8363 30.1025V30.4611L76.9244 30.3709ZM76.9244 26.5188V25.3515C77.3049 25.1441 77.6666 24.9044 78.0055 24.6349V25.1725C77.6049 25.5647 77.2702 26.0184 77.0143 26.5162M76.9244 27.3223C76.9244 27.1433 77.0143 27.0538 77.1043 26.8742C77.373 26.4061 77.6738 25.9572 78.0048 25.5305V25.9786C78.017 26.0759 78.0071 26.1746 77.976 26.2677C77.9449 26.3607 77.8932 26.4456 77.8249 26.5162C77.8253 26.6131 77.7936 26.7074 77.7349 26.7847C77.5659 27.1604 77.2823 27.4737 76.9244 27.6803V27.3223ZM77.9155 27.1433V27.5019C77.5673 27.9516 77.3214 28.4712 77.195 29.0246C77.179 28.6603 77.1186 28.2992 77.015 27.9494C77.3984 27.7471 77.7121 27.4352 77.9155 27.0538M77.285 29.7412V29.2931C77.5006 28.7586 77.7723 28.2483 78.0955 27.7704V28.7562C78.1089 28.8825 78.0771 29.0095 78.0055 29.1148C77.8646 29.5092 77.6507 29.8739 77.3749 30.19C77.389 30.0351 77.3577 29.8789 77.285 29.7412ZM77.4649 32.3392H77.5549C77.5545 32.4361 77.5861 32.5304 77.6449 32.6077V32.6971V32.9656C77.252 32.8601 76.8844 32.6773 76.5638 32.428C76.1924 32.1359 75.9371 31.7223 75.8432 31.2607C76.3577 31.537 76.8408 31.8675 77.2843 32.2464M77.8249 31.7983C77.6637 31.4229 77.5428 31.0316 77.4643 30.631C77.8298 30.3763 78.0867 29.9953 78.1848 29.5623C78.2025 29.7811 78.2637 29.9942 78.3648 30.1894C78.1319 30.7004 77.9799 31.2443 77.9142 31.8016M78.0942 32.1602C78.1593 31.5738 78.3111 31.0001 78.5448 30.4578C78.6901 30.7329 78.7526 31.0439 78.7247 31.3534V31.8016C78.6873 32.1824 78.564 32.5499 78.3641 32.8768L78.1848 32.6978V32.5188C78.1507 32.4835 78.1249 32.4411 78.1093 32.3947C78.0937 32.3482 78.0888 32.2989 78.0948 32.2503M78.9054 32.0713C78.9254 32.2337 78.9874 32.3881 79.0853 32.5195C78.9368 33.0434 78.876 33.5881 78.9054 34.1316C78.7254 33.773 78.5448 33.5045 78.3648 33.1459C78.6343 32.8042 78.8194 32.4044 78.9054 31.9786M78.9054 35.0266C78.9538 35.1232 79.0143 35.2134 79.0853 35.2951L79.2653 35.4741H79.0853C78.7376 35.4694 78.3968 35.377 78.0948 35.2056C77.8755 35.1342 77.6738 35.0175 77.503 34.8632C77.3322 34.7088 77.1961 34.5203 77.1037 34.31C77.668 34.4075 78.2145 34.5888 78.7247 34.8476L78.9947 35.0266M93.8574 34.131C93.8867 33.5874 93.8259 33.0427 93.6774 32.5188C93.6997 32.384 93.7624 32.259 93.8574 32.1602C93.9247 32.5645 94.1131 32.9392 94.3979 33.2354C94.2369 33.574 94.0564 33.9031 93.8574 34.2211M94.2179 34.8482C94.7282 34.5894 95.2746 34.4082 95.839 34.3106C95.5778 34.6771 95.2396 34.9827 94.8478 35.2062C94.5503 35.3887 94.2062 35.4819 93.8567 35.4747H93.6767L93.8567 35.2062V35.0272C93.9264 35.026 93.995 35.0093 94.0574 34.9783C94.1197 34.9473 94.175 34.9029 94.2179 34.8482ZM94.2173 31.7127V31.3541C94.1804 31.0441 94.2434 30.7305 94.3973 30.4585C94.6004 31.0108 94.7512 31.5807 94.8478 32.1608V32.609C94.6679 32.609 94.6679 32.7879 94.5779 32.8774C94.3897 32.536 94.2387 32.1755 94.1273 31.8022M94.5779 30.0999C94.5832 29.879 94.6452 29.6631 94.7579 29.4728C94.9664 29.8512 95.2075 30.2109 95.4784 30.548C95.3884 30.9961 95.2084 31.3541 95.1178 31.7153C95.064 31.1843 94.9112 30.6679 94.6672 30.1926M95.1178 32.88V32.6115C95.1118 32.563 95.1168 32.5136 95.1323 32.4672C95.1479 32.4208 95.1737 32.3784 95.2078 32.3431H95.2978C95.7154 31.9082 96.2023 31.545 96.7389 31.2678C96.6229 31.7205 96.3717 32.1275 96.0183 32.4352C95.7203 32.7181 95.3436 32.9054 94.9372 32.9728V32.8794M94.8472 29.118C94.8512 28.9925 94.8201 28.8683 94.7572 28.7594V27.7737C95.0865 28.2346 95.3306 28.7502 95.4778 29.2964V29.4754C95.4778 29.4754 95.4778 29.6543 95.5677 29.6543C95.5669 29.8081 95.5364 29.9602 95.4778 30.1025C95.1656 29.8137 94.9462 29.4396 94.8472 29.0272M95.0272 27.5045V27.0564C95.2806 27.398 95.5842 27.6999 95.9277 27.952C95.9564 28.3196 95.8946 28.6887 95.7477 29.0272C95.5624 28.4957 95.3209 27.9853 95.0272 27.5045ZM95.1172 26.6984C95.1175 26.6016 95.0859 26.5072 95.0272 26.43C95.0085 26.2396 94.947 26.0558 94.8472 25.8923V25.4442C95.2084 25.8486 95.5115 26.3008 95.7477 26.7879C95.7477 26.9669 95.9277 27.0564 95.9277 27.2361V27.5947C95.5892 27.3651 95.3112 27.0573 95.1172 26.6984ZM95.0272 25.1764V24.6388C95.2684 24.9804 95.6171 25.2325 96.0183 25.3554V26.5227C95.7937 26.0064 95.4549 25.5471 95.0272 25.179M96.0183 30.0162C96.0183 29.8372 96.1983 29.6576 96.2883 29.4786C96.6316 29.0186 97.0253 28.5979 97.462 28.2244C97.4498 28.6795 97.2919 29.1188 97.0114 29.4786C96.7338 29.8424 96.3593 30.1217 95.9303 30.2847V29.9261M96.0203 22.4034V21.5895C96.1994 21.0389 96.4737 20.5237 96.8308 20.0668C96.9049 20.5226 96.8423 20.9899 96.6508 21.4105C96.5551 21.6793 96.4013 21.9239 96.2002 22.1271C96.0891 22.2293 95.9976 22.3508 95.9303 22.4857M95.9303 24.9942C95.6024 24.829 95.3231 24.5821 95.1198 24.2776C95.0298 24.1881 94.9398 24.0091 94.8498 23.9189C94.6806 23.6832 94.5866 23.4024 94.5798 23.1128C95.015 23.4556 95.4089 23.8473 95.7536 24.2802L95.9335 24.4591V24.9968L95.9303 24.9942ZM94.6692 22.7549C94.6835 22.5711 94.6526 22.3865 94.5792 22.2172C94.9396 22.479 95.3345 22.69 95.7529 22.8444C95.7529 23.203 95.9329 23.561 95.9329 23.9196C95.6107 23.4932 95.2129 23.1288 94.7592 22.8444M94.5792 21.8586C94.4892 21.8586 94.3992 21.6796 94.3092 21.5901C94.2193 21.4112 94.0393 21.2315 93.9486 21.0525V20.8735C94.4784 21.0852 94.9662 21.3884 95.3897 21.7691H95.4797V21.9481L95.6597 22.4857C95.2809 22.3642 94.9397 22.1484 94.6685 21.8586M95.2991 19.8878L95.1191 19.4397V19.0811C95.1729 18.5215 95.3254 17.9758 95.5697 17.4689C95.7612 17.8895 95.8238 18.3568 95.7497 18.8126C95.7373 19.2413 95.5783 19.653 95.2991 19.9799M95.2091 21.2341C94.834 20.8362 94.3717 20.5297 93.858 20.3385V20.07C94.1739 20.295 94.5507 20.42 94.9391 20.4287L95.2091 21.2341ZM93.588 19.6226L93.4081 19.4436C93.2281 19.3541 93.1381 19.1751 93.0475 19.085V18.906V18.727H93.3174L93.4074 18.8165C93.768 18.9955 94.128 19.2646 94.4886 19.4436C94.6496 19.5141 94.7783 19.642 94.8492 19.8022V20.0707C94.4181 20.0584 94.0041 19.9003 93.6754 19.6226M93.5854 18.6368L93.8554 18.3684H93.9454L94.0354 18.4578C94.1254 18.6368 94.3053 18.906 94.396 19.085C94.1123 18.9267 93.8413 18.747 93.5854 18.5473V18.6368ZM87.6405 12.8139C87.8205 13.262 88.0011 13.7996 88.1811 14.2471H88.0011C87.9374 14.2278 87.8795 14.1932 87.8324 14.1463C87.7854 14.0995 87.7506 14.0419 87.7311 13.9786C87.7315 13.8817 87.6999 13.7874 87.6412 13.7101V13.5311C87.5512 13.3521 87.4612 13.2626 87.3712 13.083C87.2892 12.799 87.1679 12.5277 87.0106 12.2769V12.3664C87.059 12.463 87.1195 12.5532 87.1906 12.6349V12.9034M87.2806 13.3515C87.3598 13.7222 87.4808 14.0829 87.6412 14.4267C87.6412 14.4267 87.2806 14.5162 87.0106 13.3515L86.8306 12.4559H87.0106C87.1051 12.7932 87.2257 13.1228 87.3712 13.4416L87.2806 13.3515ZM86.83 13.3515V13.7101C86.836 13.9593 86.8974 14.204 87.0099 14.4267C86.92 14.4267 86.83 14.3372 86.74 14.2477C86.74 14.1582 86.65 14.0687 86.56 13.8891C86.5611 13.4694 86.5311 13.0502 86.47 12.6349C86.4636 13.0254 86.4336 13.4152 86.38 13.8022V13.8917C86.3894 13.9625 86.3773 14.0345 86.3453 14.0984C86.3132 14.1623 86.2626 14.2152 86.2001 14.2503C86.2001 14.3398 86.0201 14.4293 85.9301 14.4293C85.9361 14.1802 85.9976 13.9354 86.1101 13.7127V13.3541C86.2217 13.0682 86.2826 12.7651 86.2901 12.4585V12.548H86.47V12.4514C86.4949 12.7558 86.5553 13.0564 86.65 13.347M86.1094 13.347C85.8395 14.5143 85.4789 14.4222 85.4789 14.4222C85.5581 14.0514 85.6791 13.6908 85.8395 13.347L86.2001 12.2717H86.2901L86.38 12.4507L86.2001 13.3463L86.1094 13.347ZM86.0195 12.3612L85.6589 13.1673C85.6589 13.3463 85.5689 13.4358 85.4789 13.6154V13.7944C85.3889 13.7944 85.2989 13.9734 85.2989 14.0629C85.2947 14.1328 85.2649 14.1987 85.2152 14.2481C85.1654 14.2976 85.0992 14.3272 85.029 14.3314H84.849C85.029 13.8833 85.2096 13.3457 85.3896 12.8982V12.6297C85.5695 12.5402 85.5695 12.4507 85.6595 12.3612H86.0195ZM84.8464 13.9734V14.1524L84.7564 14.4209H84.9364C85.082 14.4003 85.2187 14.3387 85.3304 14.2435C85.4421 14.1483 85.5242 14.0233 85.5669 13.8833V14.5104H85.7469C85.8369 14.5104 85.9269 14.4209 86.0168 14.3314C86.0234 14.2627 86.0555 14.1989 86.1068 14.1524V13.9734L85.9269 14.69H85.2963C85.1163 14.511 84.8457 14.6005 84.6658 14.4215V14.2425C84.8192 14.0542 84.941 13.8425 85.0263 13.6154C85.0775 13.3919 85.169 13.1794 85.2963 12.9883L85.4763 12.7198C85.4763 12.5409 85.6563 12.4514 85.7462 12.3612C85.5663 12.8988 85.3856 13.5285 85.2057 14.0636M78.9908 16.93C78.9423 17.0266 78.8819 17.1168 78.8108 17.1984L75.4781 14.1505H75.8387C75.8387 14.061 78.9914 16.9274 78.9914 16.9274L78.9908 16.93ZM76.6544 24.9027C76.4784 24.8113 76.3235 24.6845 76.1994 24.5303C76.0754 24.3761 75.9849 24.198 75.9339 24.0071C75.7424 23.5866 75.6798 23.1192 75.7539 22.6634C76.1113 23.1213 76.3856 23.6377 76.5644 24.1894C76.5644 24.2789 76.6544 24.4578 76.6544 24.548V24.9027ZM76.6544 27.6796C76.2627 27.4561 75.9245 27.1505 75.6633 26.784C75.3827 26.4243 75.2249 25.9849 75.2127 25.5298C75.6677 25.894 76.0368 26.3532 76.2938 26.8748C76.3838 27.0538 76.4738 27.1433 76.5638 27.323V27.6816M96.5602 24.9942V24.546C96.5467 24.4197 96.5786 24.2927 96.6502 24.1874C96.8293 23.6369 97.1036 23.1216 97.4607 22.6647C97.4898 23.12 97.4287 23.5766 97.2807 24.0084C97.116 24.4116 96.8709 24.7773 96.5602 25.0837M96.5602 27.323C96.5943 27.1466 96.6899 26.9879 96.8301 26.8748C97.1627 26.4055 97.5238 25.9567 97.9113 25.5311C97.899 25.9862 97.7412 26.4256 97.4607 26.7853C97.2226 27.1715 96.8788 27.4821 96.4696 27.6809V27.3223M97.2801 21.2309C97.3693 21.018 97.4152 20.7896 97.4152 20.559C97.4152 20.3284 97.3693 20.1 97.2801 19.8872V19.7977H96.9195C96.532 20.315 96.2282 20.8894 96.019 21.5C95.929 21.1414 95.749 20.7834 95.6584 20.3327C96.0102 19.9298 96.2302 19.4299 96.2889 18.8995C96.3684 18.3556 96.3064 17.8006 96.109 17.2873L96.019 17.1978H95.6603L95.5703 17.2873C95.2965 17.821 95.1138 18.3963 95.0298 18.9896C94.9398 18.7211 94.7598 18.5415 94.6692 18.273V18.0045L98.8124 14.1524L99.443 14.3314H99.9836C99.9836 14.4209 99.7136 14.0629 99.7136 14.0629C99.8693 14.049 100.026 14.08 100.164 14.1524L100.975 14.4209H101.605L102.056 14.5999L101.786 14.2412L100.795 12.808C100.795 12.7185 102.416 11.1958 102.416 11.1958C102.588 12.0731 102.957 12.9001 103.497 13.6148C103.681 13.8633 103.832 14.1342 103.948 14.4209C103.97 14.5557 104.033 14.6807 104.127 14.7795L97.732 21.4981L97.2801 21.2309ZM99.9836 12.0039L99.8036 11.7354L104.398 7.5227V7.34371L104.578 5.91051L107.37 5.01492L99.9836 12.0039ZM73.141 12.0039L66.2943 5.73281L65.665 5.10636L68.5472 6.00195L68.7272 7.43515V7.61414L73.321 11.8243L73.141 12.0927V12.0039Z" fill="white"/>
<path d="M82.8694 3.67253C82.77 3.65537 82.6765 3.61349 82.5978 3.55079C82.519 3.48809 82.4574 3.40661 82.4188 3.31391C82.0582 2.86579 81.9682 2.23868 81.3377 2.05969H80.7071C80.4372 2.14919 80.2565 2.32817 79.9866 2.41832C80.157 2.25566 80.3811 2.16023 80.6171 2.14984C80.8608 2.13532 81.1051 2.16566 81.3377 2.23933C81.5664 2.39581 81.7778 2.57602 81.9682 2.77694C82.1901 3.13694 82.5466 3.39467 82.9594 3.49354" fill="white"/>
<path d="M83.9504 4.47928H83.8604C83.8509 4.41142 83.8193 4.34853 83.7704 4.30029C83.6676 4.18971 83.5454 4.09872 83.4098 4.0318H82.7792C82.7304 4.03782 82.6808 4.03291 82.6341 4.01742C82.5874 4.00194 82.5447 3.97628 82.5093 3.94231C82.3293 3.94231 82.2393 3.76332 82.1487 3.67383C82.1487 3.85282 82.3287 3.94231 82.5093 4.12195C82.5784 4.12849 82.6425 4.16039 82.6892 4.21144H82.8692C82.9389 4.21269 83.0075 4.22941 83.0699 4.26037C83.1323 4.29134 83.1869 4.33577 83.2298 4.39043C83.4098 4.39043 83.4998 4.56942 83.5904 4.65891L83.7704 4.8379V5.37551C83.6682 5.60195 83.6071 5.84454 83.5898 6.09212V6.53959V6.80807C83.5898 6.89756 83.6797 7.07655 83.6797 7.16669C83.7697 7.0772 83.6797 6.89821 83.6797 6.80807C83.6797 6.71793 83.5898 6.53959 83.5898 6.44944C83.575 6.14813 83.6054 5.84631 83.6797 5.55385C83.6797 5.37487 83.7697 5.28537 83.8597 5.10573V4.56877" fill="white"/>
<path d="M91.1558 2.9559C91.3358 2.77691 91.5164 2.50778 91.7864 2.41828C92.0054 2.2955 92.2642 2.26335 92.5069 2.32879C92.6253 2.32546 92.743 2.34774 92.8518 2.3941C92.9607 2.44045 93.0582 2.50978 93.1374 2.59727C92.9274 2.42543 92.6811 2.30285 92.4169 2.23865H91.7864C91.1558 2.41764 91.0658 3.04474 90.7052 3.49286C90.5987 3.65839 90.4404 3.78443 90.2546 3.85149C90.6201 3.66468 90.9544 3.42297 91.2458 3.13489" fill="white"/>
<path d="M89.1748 5.46498C89.2933 5.74806 89.3246 6.05976 89.2648 6.36057C89.2648 6.53956 89.2648 6.62905 89.1748 6.71919C89.1748 6.80869 89.0848 6.98768 89.1748 7.07782C89.1748 6.89883 89.1748 6.80934 89.2648 6.71919V6.00259C89.2837 5.87714 89.2775 5.74922 89.2466 5.62615C89.2157 5.50307 89.1608 5.38726 89.0848 5.28534V4.84046C89.0848 4.66148 89.0848 4.57198 89.2648 4.57198C89.3548 4.48249 89.5348 4.39299 89.6254 4.3035C89.7737 4.26489 89.9242 4.23501 90.076 4.21401H90.256L90.4359 4.12451C90.5828 3.9984 90.705 3.8465 90.7965 3.67639C90.7065 3.76589 90.5266 3.85538 90.4359 3.94487C90.3871 3.93886 90.3375 3.94377 90.2908 3.95926C90.2441 3.97474 90.2014 4.0004 90.166 4.03437H89.5354C89.3999 4.05658 89.2742 4.11897 89.1748 4.21336V4.30285L89.0848 4.39234V4.92996C89.0848 5.10895 89.2648 5.19844 89.2648 5.37808" fill="white"/>
<path d="M87.7337 8.33142C87.7337 8.33142 87.5537 8.33142 87.6437 8.86903C87.6877 8.78481 87.7181 8.6942 87.7337 8.60055V8.33142Z" fill="white"/>
<path d="M87.6437 7.07715H87.2831L87.1931 6.98765C87.1997 7.05637 87.2318 7.12018 87.2831 7.16664L87.4631 7.34563C87.5035 7.62715 87.4396 7.91369 87.2831 8.15173L87.5531 7.88324C87.6852 7.70532 87.7777 7.50142 87.8243 7.28515C87.871 7.06888 87.8708 6.8452 87.8237 6.62903C87.8251 6.74649 87.8018 6.86296 87.7553 6.97095C87.7088 7.07894 87.6402 7.17608 87.5537 7.25614" fill="white"/>
<path d="M87.1926 11.4669L87.0126 11.3774V11.736V11.8255C87.006 11.8943 86.9739 11.9581 86.9226 12.0045H87.0126L87.1026 11.915C87.1926 11.736 87.2826 11.6466 87.2826 11.4669V11.0188C87.2826 11.2873 87.1926 11.4669 87.0126 11.4669" fill="white"/>
<path d="M86.7426 8.59992C86.8747 8.42199 86.9672 8.2181 87.0138 8.00183C87.0605 7.78556 87.0603 7.56188 87.0132 7.3457C87.0253 7.44299 87.0155 7.54174 86.9843 7.63476C86.9532 7.72777 86.9016 7.81269 86.8332 7.88332H86.7432C86.675 7.87391 86.6118 7.84246 86.5633 7.79382C86.5629 7.8907 86.5945 7.98503 86.6532 8.06231C86.6906 8.3437 86.6269 8.62919 86.4733 8.8684L86.7426 8.59992Z" fill="white"/>
<path d="M86.8332 9.76461V9.31649C86.8198 9.19014 86.8517 9.06312 86.9232 8.95786V8.86902H86.8332C86.8332 8.95851 86.6533 9.1375 86.6533 9.1375L86.5633 9.227V9.49548C86.5821 9.62083 86.5758 9.74863 86.545 9.87158C86.5141 9.99454 86.4591 10.1102 86.3833 10.2121C86.3833 10.1226 86.5633 10.0331 86.5633 9.9436C86.5633 9.8541 86.6533 9.76461 86.7432 9.58497" fill="white"/>
<path d="M86.7432 11.3768C86.7432 11.3768 86.9231 11.1978 86.7432 10.5707C86.6532 10.8319 86.6532 11.1155 86.7432 11.3768Z" fill="white"/>
<path d="M86.7429 6.45012V6.7186V5.55129C86.7429 5.55129 86.6523 5.55129 86.7429 5.46179V6.53961" fill="white"/>
<path d="M87.2831 2.68739H87.3731C87.4631 2.68739 87.5531 2.86638 87.5531 2.95588C87.5591 2.90729 87.5542 2.85796 87.5386 2.81151C87.523 2.76506 87.4972 2.72266 87.4631 2.68739C87.3784 2.64362 87.2873 2.61342 87.1931 2.5979V2.77689" fill="white"/>
<path d="M87.2831 5.01685L87.553 5.82294V6.18157L87.643 6.09207C87.7356 5.96425 87.7996 5.81817 87.8306 5.66368C87.8617 5.5092 87.8591 5.34988 87.823 5.19648V5.10634C87.823 5.10634 87.823 5.28533 87.733 5.28533C87.643 5.28533 87.553 5.28533 87.3724 5.01685" fill="white"/>
<path d="M86.9226 3.58301C86.9356 3.72067 86.9998 3.84855 87.1026 3.94163C87.1026 4.03113 87.1926 4.12062 87.2826 4.21012V4.03113C87.2886 3.98254 87.2837 3.93321 87.2681 3.88676C87.2525 3.84031 87.2267 3.79791 87.1926 3.76264C87.1926 3.76264 87.0126 3.58301 86.9226 3.58301Z" fill="white"/>
<path d="M86.9225 1.5233H87.1025C87.0545 1.37754 86.9596 1.25153 86.8325 1.16467V1.34366H86.9225" fill="white"/>
<path d="M87.5531 10.8392C87.5527 10.9361 87.5843 11.0304 87.6431 11.1077V11.3761C87.8148 11.2009 87.9389 10.9851 88.0037 10.749V11.1971C87.9965 10.9324 88.0933 10.6754 88.2736 10.4805C88.454 10.2857 88.5508 10.0286 88.5436 9.76394C88.5436 9.94293 88.9042 9.85344 88.9042 9.85344C88.7827 9.73903 88.6876 9.59977 88.6254 9.44526C88.5633 9.29076 88.5356 9.12468 88.5443 8.9585V9.31712C88.5632 9.42838 88.5569 9.54245 88.5257 9.65096C88.4946 9.75948 88.4394 9.85968 88.3643 9.94423C88.3643 9.76524 88.3643 9.5856 88.1843 9.49611C88.1989 9.73845 88.1684 9.98139 88.0943 10.2127V10.5713C88.0943 10.7503 87.9144 10.93 87.7337 10.8398" fill="white"/>
<path d="M87.7338 9.13745C87.7338 9.13745 87.6438 9.58557 87.5538 9.58557C87.4638 9.58557 87.3738 9.40658 87.3738 9.31709V9.8547C87.3997 10.0792 87.335 10.3047 87.1938 10.4818C87.4564 10.2408 87.644 9.93 87.7344 9.58622L87.7338 9.13745Z" fill="white"/>
<path d="M85.842 10.9293C85.842 10.9293 86.022 10.2127 85.4814 9.9436C85.4814 9.9436 85.3915 10.0331 85.6614 10.3917C85.9314 10.7503 85.842 10.9293 85.842 10.9293Z" fill="white"/>
<path d="M84.3103 5.37489C84.4077 5.37527 84.5026 5.34383 84.5803 5.2854C84.6735 5.24698 84.7554 5.18576 84.8184 5.10741C84.8815 5.02907 84.9236 4.93615 84.9409 4.83728C84.9409 4.83728 84.7609 5.19591 84.5803 5.10576V4.83728C84.5803 4.92677 84.4903 5.01627 84.4003 5.10576V5.37425L84.3103 5.37489Z" fill="white"/>
<path d="M84.1305 6.45009C84.1271 6.56782 84.1495 6.68488 84.1961 6.79315C84.2427 6.90143 84.3124 6.99835 84.4004 7.0772C84.4004 7.0772 84.4004 7.25618 84.4904 7.25618V6.9877C84.4904 6.71922 84.6704 6.62908 84.7604 6.36059V5.91248C84.7664 5.96107 84.7614 6.01037 84.7458 6.05682C84.7303 6.10326 84.7045 6.14567 84.6704 6.18096C84.6638 6.24967 84.6317 6.31349 84.5804 6.35995C84.5738 6.42866 84.5417 6.49248 84.4904 6.53893C84.4908 6.44205 84.4592 6.34773 84.4004 6.27045V6.00197V5.91248V6.53958" fill="white"/>
<path d="M84.9409 8.06229C84.9409 8.24128 84.9409 8.42091 85.1209 8.51041V7.43518C85.1209 7.61417 85.0309 7.8833 85.1209 8.06229" fill="white"/>
<path d="M86.1121 12.0045C86.1055 11.9358 86.0734 11.872 86.0221 11.8255V11.3774C86.0221 11.4669 85.8421 11.4669 85.8421 11.4669C85.7669 11.4164 85.7036 11.3501 85.6569 11.2727C85.6101 11.1953 85.581 11.1086 85.5715 11.0188V11.4669C85.5715 11.6459 85.6615 11.7354 85.8415 11.8255C85.8481 11.8943 85.8801 11.9581 85.9315 12.0045H86.0215" fill="white"/>
<path d="M84.9408 9.58559C84.9408 9.76458 84.8509 9.85407 84.7609 10.0337C84.6197 9.85664 84.555 9.63109 84.5809 9.4066V9.04797C84.5952 9.23178 84.5643 9.4163 84.4909 9.58559C84.4909 9.76458 84.3109 9.85407 84.2209 10.0337C84.2209 10.0337 84.4909 10.0337 84.5815 9.94421C84.5743 10.2089 84.6712 10.466 84.8515 10.6608C85.0318 10.8556 85.1287 11.1127 85.1215 11.3774V10.9286C85.1554 11.1574 85.2485 11.3734 85.3914 11.5558V11.2873C85.3854 11.2387 85.3903 11.1894 85.4059 11.1429C85.4214 11.0965 85.4473 11.0541 85.4814 11.0188C85.3014 11.1083 85.2114 11.0188 85.1208 10.7503V10.3917C85.1208 10.1232 85.0308 9.94356 85.0308 9.67508" fill="white"/>
<path d="M85.9321 8.59989C85.9321 8.68938 85.9321 8.86837 85.7522 8.86837C85.5722 8.86837 85.5715 8.4209 85.5715 8.4209V9.04801C85.6673 9.31675 85.8211 9.56136 86.0221 9.76461C85.9094 9.57423 85.8475 9.35837 85.8421 9.1375V8.59989" fill="white"/>
<path d="M85.2109 1.07525H85.5715V0.896262H85.1209V0.985756M85.2109 0.448142C85.2228 0.447876 85.2346 0.45001 85.2456 0.454413C85.2567 0.458816 85.2667 0.465399 85.2751 0.473763C85.2835 0.482126 85.2901 0.492098 85.2946 0.503076C85.299 0.514055 85.3011 0.525811 85.3009 0.537636H84.9409L85.2109 0.448142Z" fill="white"/>
<path d="M88.2737 5.10566C88.3166 5.16032 88.3712 5.20475 88.4336 5.23572C88.496 5.26669 88.5646 5.2834 88.6343 5.28465H88.7243V5.01617V4.92667C88.7245 4.91485 88.7224 4.90309 88.718 4.89211C88.7135 4.88114 88.7069 4.87116 88.6985 4.8628C88.6901 4.85444 88.6801 4.84785 88.669 4.84345C88.658 4.83905 88.6462 4.83691 88.6343 4.83718C88.6343 4.83718 88.8142 5.10566 88.6343 5.10566H88.5443L88.4543 4.92667V4.83718C88.4543 4.83718 88.4543 5.01617 88.5443 5.01617" fill="white"/>
<path d="M85.7522 5.01685C85.5722 5.19583 85.4822 5.28533 85.3916 5.28533V6.00258C85.3912 6.09946 85.4228 6.19378 85.4816 6.27106L85.5716 6.36056V6.00258C85.5783 5.71304 85.6724 5.4322 85.8415 5.19648" fill="white"/>
<path d="M85.6621 1.88067V1.70168H85.3922L85.3015 1.61218V1.88067C85.35 1.97731 85.4104 2.06751 85.4815 2.14915C85.5715 2.14915 85.6621 1.97016 85.6621 1.88067Z" fill="white"/>
<path d="M85.4814 3.58306C85.4814 3.67256 85.3914 3.76205 85.3014 3.85155H85.2114V4.03053C85.572 4.03053 85.572 3.49292 85.572 3.49292L85.4814 3.58306Z" fill="white"/>
<path d="M88.1836 7.70426V8.59985C88.2227 8.45236 88.2529 8.30273 88.2742 8.15173V7.52527" fill="white"/>
<path d="M86.1121 6.89753V6.98702L86.0221 7.07652V6.71854C85.9732 6.76678 85.9416 6.82967 85.9321 6.89753V7.07716C85.9426 7.31186 86.0385 7.53476 86.2021 7.70427C86.4082 7.51865 86.5368 7.26298 86.5627 6.98767V6.09143C86.5773 6.33377 86.5468 6.57671 86.4727 6.80803" fill="white"/>
<path d="M86.3827 11.3768C86.3589 11.5321 86.3909 11.6906 86.4732 11.825C86.4732 11.4663 86.3827 11.3768 86.3827 11.3768Z" fill="white"/>
<path d="M86.202 4.56876V5.10637C86.2505 5.00974 86.3109 4.91953 86.382 4.83789V4.38977H86.202L86.382 4.56876" fill="white"/>
<path d="M88.7249 5.91251V6.27113C88.731 6.31973 88.726 6.36905 88.7105 6.4155C88.6949 6.46195 88.6691 6.50435 88.6349 6.53962V6.36063L88.545 6.27113C88.4965 6.1745 88.436 6.0843 88.365 6.00265V6.36128C88.365 6.7199 88.545 6.8094 88.6349 6.98838V7.16672C88.6349 7.16672 88.7249 7.16672 88.8149 6.98774C88.9049 6.80875 88.9949 6.53962 89.0849 6.36063C89.0849 6.18164 89.0849 6.002 88.9049 5.91251C88.9049 5.82301 88.9049 5.73352 88.8149 5.73352V5.91251" fill="white"/>
<path d="M77.7349 5.55388C77.6449 5.55388 77.5549 5.55388 77.7349 5.2854C77.6449 5.2854 77.5549 5.46439 77.5549 5.55388V5.73287H77.8249C77.9149 5.73287 78.0049 5.55388 78.0948 5.46439H77.9149" fill="white"/>
<path d="M80.6177 5.10576C80.6177 5.28475 80.5277 5.37425 80.4377 5.37425C80.5733 5.35203 80.699 5.28965 80.7983 5.19526L80.8883 5.01627V4.83728C80.8883 4.83728 80.7977 4.83728 80.6177 5.10576Z" fill="white"/>
<path d="M81.7881 5.01686V4.92737L81.6082 5.10636V5.28534H81.7881C81.7881 5.28534 81.9681 5.19585 81.9681 5.10636H81.7881" fill="white"/>
<path d="M83.0493 5.01627C83.0493 5.10576 82.7793 5.19526 82.7793 5.19526H83.1399L83.3199 5.01627V4.83728C83.2299 4.83728 83.1392 4.92677 83.0493 5.01627Z" fill="white"/>
<path d="M95.3897 5.73352H95.6596V5.55388C95.6596 5.46439 95.5697 5.37489 95.3897 5.2854C95.4797 5.46439 95.3897 5.55388 95.3897 5.55388H95.2097C95.2097 5.55388 95.3897 5.73287 95.4797 5.73287" fill="white"/>
<path d="M92.3276 5.19591C92.4176 5.19591 92.5076 5.37489 92.6882 5.37489L92.5082 5.19591C92.3283 4.83728 92.2383 4.83728 92.2383 4.83728V5.01627C92.2449 5.08498 92.2769 5.1488 92.3283 5.19526L92.3276 5.19591Z" fill="white"/>
<path d="M91.2464 5.10634H91.4263V4.9267C91.4268 4.90307 91.4224 4.8796 91.4136 4.85769C91.4047 4.83577 91.3914 4.81586 91.3746 4.79916C91.3578 4.78245 91.3378 4.76928 91.3158 4.76044C91.2937 4.7516 91.2701 4.74727 91.2464 4.74771V4.83721C91.2464 4.9267 91.0664 4.83721 91.0664 4.83721C91.1149 4.88584 91.1781 4.91729 91.2464 4.9267" fill="white"/>
<path d="M89.8953 5.01627C89.8953 5.01627 89.7154 4.83728 89.6254 4.83728V5.01627C89.6254 5.01627 89.6254 5.10576 89.8053 5.19526C89.9853 5.28475 89.8953 5.19526 89.9853 5.19526H90.1653C90.0297 5.17304 89.904 5.11066 89.8047 5.01627" fill="white"/>
<path d="M76.1137 9.40602V9.31653C76.1137 9.40602 75.9338 9.49552 75.9338 9.67515C75.9215 9.75226 75.8905 9.82522 75.8435 9.88772C75.7964 9.95021 75.7348 10.0003 75.6638 10.0338H75.8438C75.8903 10.0302 75.934 10.0102 75.967 9.97737C76.0001 9.94455 76.0202 9.90107 76.0238 9.85479V9.58631" fill="white"/>
<path d="M75.7531 12.4526C75.7531 12.4526 75.6631 12.3631 75.7531 12.094C75.7519 12.1633 75.735 12.2315 75.7039 12.2936C75.6728 12.3556 75.6281 12.4099 75.5731 12.4526C75.5735 12.5495 75.5419 12.6438 75.4832 12.7211C75.581 12.7332 75.6803 12.7234 75.7738 12.6924C75.8673 12.6615 75.9527 12.6101 76.0237 12.5421C76.0928 12.5356 76.157 12.5037 76.2037 12.4526H76.0237" fill="white"/>
<path d="M79.2666 11.9144C79.2666 11.9144 79.1766 11.9144 79.0866 12.0934C79.0866 12.1829 78.9066 12.2724 78.8167 12.2724C78.9009 12.2835 78.9866 12.2729 79.0655 12.2415C79.1444 12.2102 79.2139 12.1592 79.2672 12.0934V11.825" fill="white"/>
<path d="M80.8876 11.6459C80.8876 11.6459 80.7077 11.6459 80.7977 11.4669V11.8255C80.8968 11.8082 80.99 11.7662 81.0685 11.7035C81.1471 11.6408 81.2084 11.5595 81.2469 11.4669H81.1569" fill="white"/>
<path d="M97.1014 9.94357H97.2814C97.1702 9.84137 97.0787 9.71983 97.0114 9.58494C96.9891 9.45011 96.9263 9.32513 96.8314 9.22632V9.58494C96.8314 9.67444 96.9214 9.76393 97.1014 9.76393" fill="white"/>
<path d="M97.1914 12.5422C97.3714 12.5422 97.552 12.7212 97.732 12.7212C97.688 12.6369 97.6576 12.5463 97.642 12.4527C97.642 12.3632 97.552 12.2737 97.462 12.1842C97.552 12.2737 97.462 12.3632 97.462 12.4527H97.1914C97.1914 12.4527 97.1914 12.5422 97.3714 12.5422" fill="white"/>
<path d="M94.2192 12.273C94.1292 12.273 94.0392 12.1835 93.9493 12.094C93.9493 12.094 93.8593 11.915 93.7693 11.915V12.1835C93.8926 12.2956 94.0528 12.3593 94.2199 12.3625" fill="white"/>
<path d="M92.4175 11.915V11.5564C92.4175 11.7354 92.4175 11.7354 92.3275 11.7354H92.2375C92.344 11.9009 92.5024 12.027 92.6881 12.094" fill="white"/>
</svg>
